<?xml version="1.0" encoding="utf-8"?>
<!-- Generator: Adobe Illustrator 22.1.0, SVG Export Plug-In . SVG Version: 6.00 Build 0)  -->
<svg version="1.1" id="Layer_1" xmlns="http://www.w3.org/2000/svg" xmlns:xlink="http://www.w3.org/1999/xlink" x="0px" y="0px"
	 viewBox="0 0 400 400" style="enable-background:new 0 0 400 400;" xml:space="preserve">
<style type="text/css">
	.st0{fill:#FFFFFF;}
	.st1{fill:#6A78D1;}
	.st2{fill:#49C39E;}
	.st3{fill:#F2545B;}
	.st4{fill:#F5C26B;}
</style>
<g>
	<g>
		<path class="st0" d="M215,14.1l136.2,79.8c9.3,5.4,15,15.5,15,26.4v159.5c0,10.9-5.7,20.9-15,26.4L215,385.9
			c-9.3,5.4-20.7,5.4-30,0L48.8,306.2c-9.3-5.4-15-15.5-15-26.4V120.2c0-10.9,5.7-20.9,15-26.4L185,14.1
			C194.3,8.6,205.7,8.6,215,14.1z"/>
	</g>
	<g>
		<path class="st1" d="M288.8,273.7l-83,43.6c-3.6,1.9-8,1.9-11.6,0l-83-43.6c-8.2-4.3-8.2-15.5,0-19.8l83-43.6
			c3.6-1.9,8-1.9,11.6,0l83,43.6C297.1,258.3,297.1,269.4,288.8,273.7z"/>
		<path class="st2" d="M288.8,231.2l-83,43.6c-3.6,1.9-8,1.9-11.6,0l-83-43.6c-8.2-4.3-8.2-15.5,0-19.8l83-43.6
			c3.6-1.9,8-1.9,11.6,0l83,43.6C297.1,215.7,297.1,226.9,288.8,231.2z"/>
		<path class="st3" d="M288.8,188.6l-83,43.6c-3.6,1.9-8,1.9-11.6,0l-83-43.6c-8.2-4.3-8.2-15.5,0-19.8l83-43.6
			c3.6-1.9,8-1.9,11.6,0l83,43.6C297.1,173.1,297.1,184.3,288.8,188.6z"/>
		<path class="st4" d="M288.8,146l-83,43.6c-3.6,1.9-8,1.9-11.6,0l-83-43.6c-8.2-4.3-8.2-15.5,0-19.8l83-43.6c3.6-1.9,8-1.9,11.6,0
			l83,43.6C297.1,130.6,297.1,141.7,288.8,146z"/>
	</g>
</g>
</svg>
