<?xml version="1.0" encoding="utf-8"?>
<!-- Generator: Adobe Illustrator 24.1.2, SVG Export Plug-In . SVG Version: 6.00 Build 0)  -->
<svg version="1.1" id="Layer_1" xmlns="http://www.w3.org/2000/svg" xmlns:xlink="http://www.w3.org/1999/xlink" x="0px" y="0px"
	 viewBox="0 0 128 128" style="enable-background:new 0 0 128 128;" xml:space="preserve">
<style type="text/css">
	.st0{fill:#393C44;}
	.st1{fill:#FFFFFF;}
</style>
<g>
	<path class="st0" d="M117.33,128H10.67C4.78,128,0,123.22,0,117.33V10.67C0,4.78,4.78,0,10.67,0h106.67
		C123.22,0,128,4.78,128,10.67v106.67C128,123.22,123.22,128,117.33,128z"/>
	<g>
		<path class="st1" d="M75.94,32v27.84c3.14-3.38,7.07-5.07,11.79-5.07c2.8,0,5.37,0.54,7.7,1.63c2.33,1.09,4.32,2.55,5.97,4.39
			c1.65,1.84,2.93,4.01,3.87,6.51c0.93,2.5,1.4,5.16,1.4,7.98c0,2.87-0.48,5.57-1.44,8.09c-0.96,2.52-2.3,4.72-4.02,6.58
			c-1.72,1.87-3.75,3.34-6.08,4.43C92.8,95.46,90.28,96,87.58,96c-4.91,0-8.79-1.84-11.64-5.52v4.31H62.6V32H75.94z M92.74,75.5
			c0-1.21-0.22-2.36-0.66-3.44c-0.44-1.08-1.06-2.03-1.84-2.84c-0.79-0.81-1.7-1.45-2.73-1.93c-1.03-0.48-2.16-0.72-3.39-0.72
			c-1.18,0-2.28,0.23-3.32,0.68c-1.03,0.45-1.93,1.09-2.69,1.89c-0.76,0.81-1.38,1.75-1.84,2.84c-0.47,1.09-0.7,2.23-0.7,3.44
			s0.22,2.34,0.66,3.4c0.44,1.06,1.06,1.98,1.84,2.76c0.79,0.78,1.71,1.41,2.76,1.89c1.06,0.48,2.17,0.72,3.35,0.72
			c1.18,0,2.28-0.23,3.32-0.68c1.03-0.45,1.93-1.08,2.69-1.89c0.76-0.81,1.37-1.74,1.84-2.8C92.51,77.77,92.74,76.66,92.74,75.5z"/>
	</g>
	<g>
		<path class="st1" d="M34.67,32v27.84c3.14-3.38,7.07-5.07,11.79-5.07c2.8,0,5.37,0.54,7.7,1.63c2.33,1.09,4.32,2.55,5.97,4.39
			c1.65,1.84,2.93,4.01,3.87,6.51c0.93,2.5,1.4,5.16,1.4,7.98c0,2.87-0.48,5.57-1.44,8.09c-0.96,2.52-2.3,4.72-4.02,6.58
			c-1.72,1.87-3.75,3.34-6.08,4.43C51.53,95.46,49.01,96,46.31,96c-4.91,0-8.79-1.84-11.64-5.52v4.31H21.33V32H34.67z M51.47,75.5
			c0-1.21-0.22-2.36-0.66-3.44c-0.44-1.08-1.06-2.03-1.84-2.84c-0.79-0.81-1.7-1.45-2.73-1.93c-1.03-0.48-2.16-0.72-3.39-0.72
			c-1.18,0-2.28,0.23-3.32,0.68c-1.03,0.45-1.93,1.09-2.69,1.89c-0.76,0.81-1.38,1.75-1.84,2.84c-0.47,1.09-0.7,2.23-0.7,3.44
			s0.22,2.34,0.66,3.4c0.44,1.06,1.06,1.98,1.84,2.76c0.79,0.78,1.71,1.41,2.76,1.89c1.06,0.48,2.17,0.72,3.35,0.72
			c1.18,0,2.28-0.23,3.32-0.68c1.03-0.45,1.93-1.08,2.69-1.89c0.76-0.81,1.37-1.74,1.84-2.8C51.24,77.77,51.47,76.66,51.47,75.5z"/>
	</g>
</g>
</svg>
