<?xml version="1.0" encoding="utf-8"?>
<!-- Generator: Adobe Illustrator 24.1.3, SVG Export Plug-In . SVG Version: 6.00 Build 0)  -->
<svg version="1.1" id="Layer_1" xmlns="http://www.w3.org/2000/svg" xmlns:xlink="http://www.w3.org/1999/xlink" x="0px" y="0px"
	 viewBox="0 0 115 40" style="enable-background:new 0 0 115 40;" xml:space="preserve">
<style type="text/css">
	.st0{fill:#393C44;}
	.st1{fill:#FFFFFF;}
</style>
<path class="st0" d="M111.16,40H3.91c-2.15,0-3.89-1.74-3.89-3.89V4.04c0-2.15,1.74-3.89,3.89-3.89h107.25
	c2.15,0,3.89,1.74,3.89,3.89v32.07C115.05,38.26,113.31,40,111.16,40z"/>
<path class="st1" d="M10.37,10.03v8.57c0.93-1.26,2.33-1.67,3.61-1.67c1.58,0,3.01,0.59,4.02,1.54c1.12,1.05,1.82,2.62,1.82,4.53
	c0,1.78-0.62,3.42-1.82,4.61c-1.01,1.03-2.26,1.57-3.97,1.57c-2.05,0-3.09-0.95-3.66-1.78v1.39H6.63V10.03H10.37z M10.97,20.98
	c-0.44,0.46-0.82,1.13-0.82,2.11c0,0.95,0.41,1.64,0.85,2.05c0.59,0.57,1.41,0.85,2.11,0.85c0.64,0,1.36-0.26,1.93-0.8
	c0.54-0.51,0.9-1.26,0.9-2.11c0-0.92-0.36-1.67-0.9-2.18c-0.59-0.57-1.23-0.77-1.98-0.77C12.26,20.14,11.56,20.37,10.97,20.98z"/>
<path class="st1" d="M25.08,17.35v6.32c0,0.51,0.05,1.31,0.64,1.85c0.26,0.23,0.72,0.54,1.54,0.54c0.69,0,1.23-0.23,1.56-0.54
	c0.54-0.51,0.62-1.28,0.62-1.85v-6.32h3.74v6.68c0,1.31-0.13,2.54-1.28,3.67c-1.31,1.28-3.23,1.49-4.59,1.49
	c-1.41,0-3.31-0.21-4.62-1.49c-1.05-1.03-1.26-2.18-1.26-3.44v-6.91H25.08z"/>
<path class="st1" d="M47.88,28.79h-3.74V27.4c-0.57,0.82-1.61,1.78-3.66,1.78c-1.71,0-2.96-0.54-3.97-1.57
	c-1.19-1.18-1.82-2.83-1.82-4.61c0-1.9,0.7-3.47,1.82-4.53c1.01-0.95,2.44-1.54,4.02-1.54c1.27,0,2.67,0.41,3.61,1.67v-8.57h3.74
	V28.79z M39.53,20.91c-0.54,0.51-0.9,1.26-0.9,2.18c0,0.85,0.36,1.59,0.9,2.11c0.57,0.54,1.28,0.8,1.93,0.8
	c0.69,0,1.52-0.28,2.11-0.85c0.44-0.41,0.85-1.1,0.85-2.05c0-0.98-0.39-1.64-0.82-2.11c-0.59-0.62-1.28-0.85-2.08-0.85
	C40.77,20.14,40.12,20.34,39.53,20.91z"/>
<path class="st1" d="M52.32,10.3c1.21,0,2.16,0.95,2.16,2.16c0,1.21-0.95,2.16-2.16,2.16c-1.21,0-2.16-0.95-2.16-2.16
	C50.17,11.25,51.12,10.3,52.32,10.3z M54.19,17.35v11.44h-3.74V17.35H54.19z"/>
<path class="st1" d="M60.49,10.03v8.57c0.93-1.26,2.33-1.67,3.61-1.67c1.58,0,3.01,0.59,4.02,1.54c1.12,1.05,1.82,2.62,1.82,4.53
	c0,1.78-0.62,3.42-1.82,4.61c-1.01,1.03-2.26,1.57-3.97,1.57c-2.05,0-3.09-0.95-3.66-1.78v1.39h-3.74V10.03H60.49z M61.06,20.98
	c-0.44,0.46-0.82,1.13-0.82,2.11c0,0.95,0.41,1.64,0.85,2.05c0.59,0.57,1.41,0.85,2.11,0.85c0.64,0,1.36-0.26,1.93-0.8
	c0.54-0.51,0.9-1.26,0.9-2.11c0-0.92-0.36-1.67-0.9-2.18c-0.59-0.57-1.23-0.77-1.98-0.77C62.34,20.14,61.65,20.37,61.06,20.98z"/>
<path class="st1" d="M80.26,17.35H84v11.44h-3.74v-1.39c-1.01,1.54-2.46,1.77-3.42,1.77c-1.66,0-3.06-0.41-4.33-1.74
	c-1.22-1.28-1.69-2.77-1.69-4.28c0-1.92,0.73-3.57,1.79-4.62c1.01-1,2.41-1.56,4.02-1.56c0.99,0,2.57,0.23,3.63,1.67V17.35z
	 M75.57,20.96c-0.39,0.39-0.85,1.05-0.85,2.08c0,1.03,0.44,1.7,0.77,2.05c0.51,0.54,1.31,0.9,2.18,0.9c0.74,0,1.44-0.31,1.93-0.8
	c0.49-0.46,0.9-1.18,0.9-2.16c0-0.82-0.31-1.59-0.85-2.11c-0.57-0.54-1.39-0.8-2.05-0.8C76.8,20.14,76.06,20.47,75.57,20.96z"/>
<path class="st1" d="M93.21,20.26c-0.57-0.33-1.31-0.64-2.03-0.64c-0.39,0-0.82,0.1-1.05,0.33c-0.13,0.13-0.23,0.33-0.23,0.51
	c0,0.26,0.18,0.41,0.36,0.51c0.26,0.15,0.64,0.23,1.1,0.39l0.98,0.31c0.64,0.21,1.31,0.46,1.9,1c0.67,0.62,0.9,1.31,0.9,2.18
	c0,1.52-0.67,2.49-1.18,3.01c-1.13,1.13-2.52,1.31-3.72,1.31c-1.54,0-3.21-0.33-4.7-1.64l1.57-2.49c0.36,0.31,0.87,0.67,1.26,0.85
	c0.51,0.26,1.05,0.36,1.54,0.36c0.23,0,0.82,0,1.16-0.26c0.23-0.18,0.39-0.46,0.39-0.74c0-0.21-0.08-0.46-0.41-0.67
	c-0.26-0.15-0.59-0.26-1.13-0.41l-0.92-0.28c-0.67-0.21-1.36-0.57-1.85-1.05c-0.54-0.57-0.82-1.21-0.82-2.08
	c0-1.1,0.44-2.03,1.1-2.65c1.03-0.95,2.41-1.16,3.47-1.16c1.7,0,2.88,0.44,3.8,0.98L93.21,20.26z"/>
<path class="st1" d="M108.43,23.73h-8.55c0,0.62,0.23,1.44,0.69,1.95c0.57,0.62,1.34,0.72,1.9,0.72c0.54,0,1.1-0.1,1.49-0.33
	c0.05-0.03,0.49-0.31,0.8-0.95l3.49,0.36c-0.51,1.62-1.54,2.47-2.21,2.88c-1.1,0.67-2.34,0.85-3.62,0.85
	c-1.72,0-3.24-0.31-4.57-1.64c-1-1-1.72-2.52-1.72-4.42c0-1.64,0.59-3.34,1.75-4.52c1.39-1.39,3.11-1.64,4.39-1.64
	c1.28,0,3.13,0.23,4.55,1.72c1.36,1.44,1.62,3.24,1.62,4.65V23.73z M105.03,21.48c-0.03-0.1-0.21-0.82-0.74-1.34
	c-0.41-0.39-1-0.64-1.75-0.64c-0.95,0-1.52,0.39-1.87,0.74c-0.28,0.31-0.54,0.72-0.64,1.23H105.03z"/>
</svg>
