<?xml version="1.0" encoding="utf-8"?>
<!-- Generator: Adobe Illustrator 21.0.0, SVG Export Plug-In . SVG Version: 6.00 Build 0)  -->
<svg version="1.1" id="logo" xmlns="http://www.w3.org/2000/svg" xmlns:xlink="http://www.w3.org/1999/xlink" x="0px" y="0px"
	 viewBox="0 0 300 300" style="enable-background:new 0 0 300 300;" xml:space="preserve">
<style type="text/css">
	.st0{fill:#FFFFFF;}
</style>
<title>Ansible-Mark-RGB</title>
<path d="M259.8,152.9c0,59-47.8,106.8-106.8,106.8c-59,0-106.8-47.8-106.8-106.8S94,46.1,153,46.1c0,0,0,0,0,0
	C212,46.1,259.8,93.9,259.8,152.9C259.8,152.9,259.8,152.9,259.8,152.9"/>
<path class="st0" d="M154.8,112.9l27.6,68.2l-41.7-32.9L154.8,112.9z M203.9,196.8L161.4,94.5c-1-2.8-3.7-4.6-6.6-4.5
	c-3-0.1-5.7,1.7-6.8,4.5l-46.7,112.2h16l18.5-46.3l55.1,44.5c2.2,1.8,3.8,2.6,5.9,2.6c4.2,0.1,7.7-3.2,7.8-7.4c0-0.1,0-0.1,0-0.2
	C204.6,198.9,204.3,197.8,203.9,196.8"/>
</svg>
