<svg width="24" height="24" xmlns="http://www.w3.org/2000/svg" viewBox="0 0 64 64">
  <circle cx="32" cy="32" r="32" fill="#73C41D"/>
  <path fill="#fff" d="M 42.68107624821819,47.365033780856166 C 37.7057319763219,47.365033780856166 33.46205597970447,43.414025094350315 33.46205597970447,38.14601351234245 C 33.46205597970447,32.87800193033459 37.1203973560988,28.487992278661398 42.82740990327396,28.487992278661398 C 48.68075610550488,28.487992278661398 52.04643017178768,33.17066924044612 52.04643017178768,37.999679857286644 C 52.04643017178768,43.26769143929451 48.388088795393344,47.365033780856166 42.68107624821819,47.365033780856166 M 43.12007721338553,24.68331724721135 C 38.437400251600806,24.68331724721135 35.94972811565264,26.292987452824885 34.19372425498338,28.048991313494145 L 33.75472328981604,28.48799227866148 L 33.75472328981604,12.976624842749505 L 29.80371460331019,12.976624842749505 L 29.80371460331019,38.292347167398255 C 29.80371460331019,46.048030885354244 35.80339446059688,51.02337515725049 42.68107624821823,51.0233751572505 C 50.29042631111841,51.0233751572505 55.99743885829357,45.170028955019575 55.99743885829357,37.70701254717511 C 56.14377251334933,30.682997104498074 49.99775900100684,24.68331724721135 43.12007721338553,24.68331724721135 Z"/>
  <path fill="#fff" d="M 27.901377087585125,29.804995174163405 C 27.901377087585125,29.804995174163405 26.145373226915865,29.512327864051876 24.682036676358134,29.219660553940347 C 23.218700125800403,28.926993243828818 22.340698195465773,28.78065958877301 20.14569336962918,27.90265765843842 C 17.950688543792584,27.024655728103834 16.04835102806752,24.97598455732296 14.292347167398258,22.63464607643056 C 12.536343306728998,20.29330759553816 8.0,16.63496621914383 8.0,16.634966219143834 C 8.0,16.634966219143834 9.463336550557731,16.78129987419964 10.780339446059696,17.07396718431117 C 11.951008686505897,17.366634494422698 14.877681787621356,18.24463642475737 17.804354888736817,19.85430663037082 C 18.536023164015685,20.14697394048235 18.828690474127214,20.43964125059388 19.560358749406078,20.878642215761218 C 20.584694334796474,21.463976835984276 21.609029920186906,22.48831242137475 22.633365505577302,23.512648006765147 C 23.804034746023504,24.68331724721135 24.8283703314139,25.70765283260174 25.706372261748527,26.731988417992138 C 24.682036676358134,24.975984557322878 22.194364540409968,18.537303734868814 17.365353923569483,13.269292152861038 C 16.92635295840215,12.68395753263798 20.73102798985228,15.171629668586103 21.755363575242676,16.195965253976496 C 24.682036676358134,19.415305665203483 25.12103764152547,21.171309525872744 26.145373226915865,24.097982626988205 L 27.901377087585125,29.80499517416332 L 27.901377087585125,29.804995174163405 Z"/>
</svg>
