<svg role="img" viewBox="0 0 24 24" xmlns="http://www.w3.org/2000/svg" id="Brevo--Streamline-Simple-Icons" height="24" width="24">
  <desc>
    Brevo Streamline Icon: https://streamlinehq.com
  </desc>
  <title>Brevo</title>
  <path d="M12 0A12 12 0 0 0 0 12a12 12 0 0 0 12 12 12 12 0 0 0 12 -12A12 12 0 0 0 12 0z" fill="rgb(69, 150, 113)"/>
  <path d="M7.2 4.8h5.747c2.34 0 3.895 1.406 3.895 3.516 0 1.022 -0.348 1.862 -1.09 2.588C17.189 11.812 18 13.22 18 14.785c0 2.86 -2.64 5.016 -6.164 5.016H7.199v-15zm2.085 1.952v5.537h0.07c0.233 -0.432 0.858 -0.796 2.249 -1.226 2.039 -0.659 3.037 -1.52 3.037 -2.655 0 -0.998 -0.766 -1.656 -1.924 -1.656H9.285zm4.87 5.266c-0.766 0.385 -1.67 0.748 -2.76 1.11 -1.229 0.387 -2.11 1.386 -2.11 2.407v2.315h2.365c2.387 0 4.149 -1.34 4.149 -3.155 0 -1.067 -0.625 -2.087 -1.645 -2.677z" fill="#ffffff" stroke-width="1"></path>
</svg>
