<svg width="24" height="24" xmlns="http://www.w3.org/2000/svg" xml:space="preserve" viewBox="18.2 0.51 263.6 299.06">
  <rect x="18.2" y="0.51" width="263.6" height="299.06" fill="#632ca6"/>
  <path d="M118.1 79.1c10.3-7 23.7-4.3 21.4-2.2-4.2 4 1.4 2.9 2 10.3.4 5.5-1.4 8.5-2.9 10.3-3.2.4-7.1 1.2-11.9 2.7-2.8.9-5.2 1.9-7.4 2.9-.6-.4-1.2-.8-1.9-1.4-7.2-6.3-7-17.4.7-22.6m61.7 43.5c1.9-1.4 10.4-4.2 18.3-5.1 4.1-.5 10.1-.8 11.3-.1 2.5 1.4 2.5 5.6.8 9.6-2.5 5.8-6 12.1-10 12.6-6.5.9-12.7-2.7-19.7-7.9-2.5-1.9-4.1-6.5-.7-9.1m11.9-55.8c9.6 4.5 8.4 13 8.6 18 .1 1.4.1 2.4-.1 3.1-1.3-.7-3.4-1.3-6.8-1.1-1 0-1.9.2-2.9.3-3.6-1.9-5.7-5.6-7.6-9.6-.2-.4-.3-.7-.5-1 0-.1-.1-.3-.2-.4 0-.1 0-.1-.1-.2-1.1-3.4-.4-4.1.1-5.1.5-1.1 2.2-1.9-.4-2.8-.2-.1-.5-.1-.8-.2 2-2.2 7.1-2.7 10.7-1m-52.5 101.8c-10.4-6.7-21.1-16.2-25.8-21.5-.8-.6-.7-3.2-.7-3.2 4.2 3.3 21.8 15.8 40.4 21.6 6.5 2 16.6 2.8 25.3-2.2 6.7-3.8 14.7-10.4 19.5-17.1l.9 1.5c0 1-2.2 5.9-3.4 7.9 2 1.2 3.5 1.5 5.8 2.1l15.4-2.4c5.5-8.9 9.5-23.3 5.3-37-2.4-7.8-15-23.5-15.8-24.3-3.2-3 .5-14.7-5.7-27.5-6.7-13.5-23.9-27.6-31.4-33.7 2.2 1.6 15.8 7.1 22.1 14.7.6-.8.8-4.9 1.4-5.9-5.4-7.1-5.9-19.8-5.9-23.1 0-6.2-3.2-13.2-3.2-13.2s5.4 4.3 6.8 11.7c1.7 8.8 5.2 15.7 9.9 21.5C209 49.4 217 55 221 51c4.8-4.9-4.9-26.8-17.3-39-14.5-14.2-18.3-12.4-26.8-9.4-6.8 2.4-10.5 21.7-28.2 21.3-3-.3-10.7-.5-14.5-.5 2-2.8 3.7-4.9 3.7-4.9s-5.9 2.4-11 5.4l-.4-.6c1.7-3.6 3.5-5.9 3.5-5.9s-4.7 2.9-9.1 6.3c.8-4.3 3.8-7 3.8-7s-6 1.1-13.6 9.5c-8.7 2.4-10.8 3.9-17.7 7-11.2-2.5-16.5-6.4-21.6-13.7-3.8-5.6-10.7-6.4-17.7-3.5C43.9 20.2 31 26 31 26s4.2-.2 8.6 0c-6 2.3-11.8 5.4-11.8 5.4s2.8-.1 6.3 0c-2.4 2-3.7 2.9-6 4.4-5.5 4-9.9 8.6-9.9 8.6s3.7-1.7 7.1-2.6c-2.3 5.4-7 9.3-6.1 15.9.8 6 8.2 18.3 17.7 25.9.8.7 13.8 12.7 23.6 7.7 9.8-4.9 13.6-9.3 15.2-16 1.9-7.7.8-13.6-3.2-30.3-1.3-5.5-4.8-16.9-6.5-22.4l.4-.3C69.5 29 77.7 46.8 81 58.8c5.2 18.7 3.5 28.1 1.2 31.6-7.1 10.5-25.3 11.8-33.6 6-1.3 20.1 3.2 28.9 4.7 33.4-.8 5.1 2.6 14.6 2.6 14.6s.4-4.3 1.9-6.6c.4 5.1 3 11.1 3 11.1s-.2-3.7 1-6.9c1.6 2.8 2.9 3.4 4.4 5.5 1.5 5.4 4.7 9.4 4.7 9.4s-.5-2.9-.2-5.9c7.6 7.3 8.9 18 9.7 26.1 2.1 22.5-35.5 40.4-42.8 54.5-5.5 8.3-8.8 21.5.5 29.3 22.6 18.8 13.9 23.9 25.2 32.2 15.5 11.3 35 6.2 41.6-3 9.2-12.8 6.8-24.9 3.4-36.2-2.7-8.9-9.9-23.6-18.9-29.2-9.2-5.8-18.1-6.9-25.7-6.1l.7-.8c10.9-2.2 22.3-1 30.5 4.3 9.3 6 17.9 16.3 22.4 32.1 5.1-.7 5.8-1.1 10.4-1.7L117.2 171zm6.1 101.9-1.2-11.3 23.5-35.8 26.7 7.8 22.9-38.3 27.5 18.1 20.9-43.8L273 247zm128-119.6-84 15.2c-2.1 2.7-7.2 7.4-9.7 8.6-10.6 5.3-17.8 3.8-24 2.2-4-1-6.3-1.6-9.6-3.1l-20.5 2.8L138 280.4l143.8-25.9z" fill="#ffffff"/>
</svg>
