<svg version="1.1" id="Layer_1" xmlns:x="ns_extend;" xmlns:i="ns_ai;" xmlns:graph="ns_graphs;" xmlns="http://www.w3.org/2000/svg" xmlns:xlink="http://www.w3.org/1999/xlink" x="0px" y="0px" viewBox="0 0 128.1 134" style="enable-background:new 0 0 128.1 134;" xml:space="preserve">
 <style type="text/css">
  .st0{fill:#5644D8;}
 </style>
 <metadata>
  <sfw xmlns="ns_sfw;">
   <slices>
   </slices>
   <sliceSourceBounds bottomLeftOrigin="true" height="134" width="128.1" x="-125" y="-0.1">
   </sliceSourceBounds>
  </sfw>
 </metadata>
 <g>
  <g>
   <path class="st0" d="M82.3,69.3L68.6,77c-1.2,0.7-2.7,0.3-3.4-0.9L49.4,49.3c-0.7-1.2-0.3-2.6,0.9-3.3L64,38.3
			c8.8-4.9,19.9-2.1,25,6.5c1.7,2.8,2.4,5.9,2.4,8.9C91.4,59.9,88.2,65.9,82.3,69.3z M120.7,26.9C105.5,1.2,72-7.6,45.7,7.3
			L2.5,31.7c-2.4,1.4-3.2,4.3-1.8,6.7l37.5,63.5c0.8,1.4,1.2,2.9,1.2,4.5v26.4c0,1,1.1,1.6,2,1.1l11.8-6.7l8-4.5l39.5-22.4
			c17.6-9.9,27.4-28.1,27.4-46.6C128,44.6,125.7,35.3,120.7,26.9z">
   </path>
  </g>
 </g>
</svg>