<svg xmlns="http://www.w3.org/2000/svg" xml:space="preserve" id="Layer_1" x="0" y="0" version="1.1" viewBox="0 0 512 512"><style>.st1{fill:none;stroke:#000}</style><path d="M444 512H68c-37.6 0-68-30.4-68-68V68C0 30.4 30.4 0 68 0h376c37.6 0 68 30.4 68 68v376c0 37.6-30.4 68-68 68" style="fill:#a7e575"/><path d="M225.1 113.6c-4.6 4.2-9.7 9.1-15.6 14.9-3.7 2.9-8.2 4.5-13 4.6l-19.5.4 5.7-5.7C217.3 93.3 234.5 76 256 76s38.7 17.3 73.3 51.8l5.7 5.7-18.9-.4c-5.3-.1-10.4-2.2-14.3-5.8l-11.3-10.5c-1.1-1-2.1-2-3.1-2.9l-.6-.6c-3.9-3.5-7.4-6.5-10.7-9-9.6-7.3-15.2-9-19.9-9-4.8 0-10.4 1.7-19.9 9-3.6 2.7-7.2 5.7-11.2 9.3M398 224.7c-.9-1-1.9-2.1-2.9-3.1l-10.5-11.3c-3.6-3.9-5.7-9-5.8-14.3l-.4-18.9 5.7 5.7c34.5 34.5 51.8 51.8 51.8 73.3 0 18.3-12.5 33.5-37.6 59-4.4 4.4-9.1 9.2-14.2 14.3l-5.7 5.7.4-18.9c.1-5.3 2.2-10.4 5.8-14.3l10.5-11.3c1-1.1 2-2.1 2.9-3.1l.6-.6c3.5-3.9 6.5-7.4 9-10.7 7.3-9.6 9-15.2 9-19.9 0-4.8-1.7-10.4-9-19.9-2.5-3.3-5.5-6.8-9-10.7zM287.1 398.2c1.2-1.1 2.3-2.1 3.6-3.3l11.1-10.3c3.9-3.6 9-5.7 14.3-5.8l18.9-.4-5.7 5.7c-5.1 5.1-9.8 9.8-14.3 14.2-25.5 25.1-40.7 37.6-59 37.6s-33.5-12.5-59-37.6c-4.4-4.4-9.2-9.1-14.3-14.2l-5.7-5.7 18.9.4c5.3.1 10.4 2.1 14.3 5.7l7.6 7c7 6.7 12.8 11.9 18.2 16 9.6 7.3 15.2 9 19.9 9 4.8 0 10.4-1.7 19.9-9 3.4-2.6 6.9-5.6 10.8-9.2zM113.6 286.9l3.6 3.9 10.1 10.9c3.6 3.9 5.7 9 5.8 14.3l.4 18.9-5.7-5.7c-5.1-5.1-9.8-9.8-14.2-14.3C88.5 289.5 76 274.3 76 256c0-21.5 17.3-38.7 51.8-73.3l5.7-5.7-.4 18.9c-.1 5.3-2.2 10.4-5.8 14.3L117 221.5c-1 1.1-2 2.2-3 3.2l-.6.6c-3.5 3.9-6.5 7.4-9 10.7-7.3 9.6-9 15.2-9 19.9 0 4.8 1.7 10.4 9 19.9 2.6 3.5 5.6 7.1 9.2 11.1"/><path d="m113.5 225.2 13.8-14.9c3.2-3.5 5.2-7.9 5.7-12.5.1-7.7.2-14.4.5-20.3v-.8c.3-5.1.6-9.6 1.2-13.7 1.6-12 4.4-17.1 7.8-20.4 3.4-3.4 8.5-6.2 20.4-7.8 4.1-.6 8.8-.9 14-1.2h.3c6.1-.3 13.1-.4 21.1-.5 4.8-.5 9.4-2.6 12.9-6l13.9-13.5H217c-48.8 0-73.3 0-88.4 15.2-15.2 15.2-15.2 39.6-15.2 88.4v8zM379 197.8c.5 4.6 2.5 9 5.7 12.5l13.8 14.9v-8.1c0-48.8 0-73.3-15.2-88.4-15.2-15.2-39.6-15.2-88.4-15.2h-8.1l14.9 13.8c3.5 3.2 7.9 5.2 12.5 5.7 7.6.1 14.3.2 20.2.5h1.2c5 .3 9.4.6 13.4 1.2 12 1.6 17.1 4.4 20.4 7.8 3.4 3.4 6.2 8.5 7.8 20.4.6 4.2.9 8.8 1.2 14v.2c.4 6 .5 12.8.6 20.7M197 398.4c-4.4-4.4-9.2-9.1-14.3-14.2l-5.7-5.7h-.1c-5.2-.3-9.9-.6-14-1.2-12-1.6-17.1-4.4-20.4-7.8-3.4-3.4-6.2-8.5-7.8-20.4-.6-4.1-.9-8.8-1.2-14v-.1l-5.7-5.7c-5.1-5.1-9.8-9.8-14.2-14.3.3 35.7 2.2 55.4 15.1 68.3s32.6 14.8 68.3 15.1M398.4 315c-4.4 4.4-9.1 9.2-14.2 14.3l-5.7 5.7v.1c-.3 5.2-.6 9.9-1.2 14-1.6 12-4.4 17.1-7.8 20.4-3.4 3.4-8.5 6.2-20.4 7.8-4.1.5-8.6.9-13.7 1.2h-.4l-5.7 5.7c-5.1 5.1-9.8 9.8-14.3 14.2 35.7-.3 55.4-2.2 68.3-15.1s14.8-32.6 15.1-68.3"/><path d="M301.7 127.4c3.9 3.6 9 5.7 14.3 5.8l18.9.4-5.7-5.7C294.7 93.3 277.5 76 256 76s-38.7 17.3-73.3 51.8l-5.7 5.7 19.5-.4c4.7-.1 9.3-1.7 13-4.6 5.8-5.8 10.9-10.7 15.6-14.9l.1-.1m76.5 13.9-11.3-10.5c-1.1-1-2.1-2-3.1-2.9l-.6-.6c-3.9-3.5-7.4-6.5-10.7-9-9.6-7.3-15.2-9-19.9-9-4.8 0-10.4 1.7-19.9 9-3.4 2.6-6.9 5.6-10.8 9.2m76.3 13.8-14.9-13.8h8.1c48.8 0 73.3 0 88.4 15.2 15.2 15.2 15.2 39.6 15.2 88.4v8.1l-13.8-14.9m-83-83c3.5 3.2 7.9 5.2 12.5 5.7 7.6.1 14.3.2 20.2.5h1.2c5 .3 9.4.6 13.4 1.2 12 1.6 17.1 4.4 20.4 7.8 3.4 3.4 6.2 8.5 7.8 20.4.6 4.2.9 8.8 1.2 14v.2c.3 6 .4 12.8.5 20.7.5 4.6 2.5 9 5.7 12.5m-159.4-96.9L211.3 127c-3.5 3.4-8.1 5.5-12.9 6-8 .1-15 .2-21.1.5h-.3c-5.2.3-9.9.6-14 1.2-12 1.6-17.1 4.4-20.4 7.8-3.4 3.4-6.2 8.5-7.8 20.4-.5 4.1-.9 8.6-1.2 13.7v.8c-.3 5.9-.4 12.6-.5 20.3-.5 4.7-2.5 9.1-5.7 12.5m97.8-96.7h-8.1c-48.8 0-73.3 0-88.4 15.2-15.2 15.2-15.2 39.6-15.2 88.4v8l13.8-14.9m257.3.1 10.5 11.3c1 1.1 2 2.1 2.9 3.1l.6.6c3.5 3.9 6.5 7.4 9 10.7 7.3 9.6 9 15.2 9 19.9 0 4.8-1.7 10.4-9 19.9-2.5 3.3-5.5 6.9-9 10.7l-.6.6c-.9 1-1.9 2.1-2.9 3.1l-10.5 11.3m0-91.2c-3.6-3.9-5.7-9-5.8-14.3l-.4-18.9 5.7 5.7c34.5 34.5 51.8 51.8 51.8 73.3 0 18.3-12.5 33.5-37.6 59M378.5 335l5.7-5.7c5.1-5.1 9.8-9.8 14.2-14.3m-19.9 20 .4-18.9c.1-5.3 2.2-10.4 5.8-14.3m-6.2 33.2v.1m6.1-33.4 13.8-14.9V315m-13.8-13.3c-3.2 3.5-5.2 7.8-5.7 12.5-.1 7.8-.2 14.7-.5 20.7v.2m-76.7 49.5-11.1 10.3-3.6 3.3-.3.2m15-13.8c3.9-3.6 9-5.7 14.3-5.8l18.9-.4m-33.2 6.2c3.5-3.2 7.9-5.2 12.5-5.7 7.7-.1 14.5-.2 20.4-.5h.7m-33.6 6.2-14.9 13.8m48.1-19.9-5.7 5.7c-5.1 5.1-9.8 9.8-14.3 14.2m20-19.9h.4m-158.3 0 5.7 5.7c5.1 5.1 9.8 9.8 14.3 14.2m-20-19.9 18.9.4c5.3.1 10.4 2.1 14.3 5.7m-33.2-6.1h-.1m33.4 6.1 7.6 7c7 6.7 12.8 11.9 18.2 16 9.6 7.3 15.2 9 19.9 9 4.8 0 10.4-1.7 19.9-9 3.4-2.6 6.9-5.6 10.8-9.2m-76.4-13.8 15.1 13.9h-28.3m13.2-13.9c-3.4-3.2-7.8-5.1-12.4-5.6-7.8-.1-14.6-.2-20.6-.5h-.3m109.8 20H315m-187.6-96.8-10.1-10.9q-1.95-2.1-3.6-3.9l-.1-.1m13.8 14.9c3.6 3.9 5.7 9 5.8 14.3l.4 18.9m-6.2-33.2c3.2 3.5 5.2 7.9 5.7 12.5.1 7.8.2 14.5.5 20.5v.4m-6.2-33.4-13.8-14.9m19.9 48.2-5.7-5.7c-5.1-5.1-9.8-9.8-14.2-14.3m19.9 20v.1m-6.1-124.8c3.6-3.9 5.7-9 5.8-14.3l.4-18.9-5.7 5.7C93.3 217.3 76 234.5 76 256c0 18.3 12.5 33.5 37.6 59m13.8-104.7L117 221.5c-1 1.1-2 2.2-3 3.2l-.6.6c-3.5 3.9-6.5 7.4-9 10.7-7.3 9.6-9 15.2-9 19.9 0 4.8 1.7 10.4 9 19.9 2.6 3.4 5.6 6.9 9.2 10.9m-.1.1V315m265 20.1c-.3 5.2-.6 9.9-1.2 14-1.6 12-4.4 17.1-7.8 20.4-3.4 3.4-8.5 6.2-20.4 7.8-4.1.5-8.6.9-13.7 1.2m-158.5 0c-5.2-.3-9.9-.6-14-1.2-12-1.6-17.1-4.4-20.4-7.8-3.4-3.4-6.2-8.5-7.8-20.4-.6-4.1-.9-8.8-1.2-14m63.5 63.3c-35.7-.3-55.4-2.2-68.3-15.1s-14.8-32.6-15.1-68.3m83.4 83.4c25.5 25.1 40.7 37.6 59 37.6s33.5-12.5 59-37.6m83.4-83.4c-.3 35.7-2.2 55.4-15.1 68.3s-32.6 14.8-68.3 15.1" class="st1"/><path d="M241.3 169.9 228.2 181c-2.3 2-5.3 3.1-8.3 3.3l-21.9 1 11.4-11.4c22.1-22.1 33.1-33.1 46.8-33.1s24.7 11 46.8 33.1l11.4 11.4-22.2-1c-3.1-.1-6.1-1.3-8.5-3.4l-9.9-8.5c-3.5-3.3-6.4-5.9-9.1-7.9-5.5-4.2-7.6-4.3-8.5-4.3s-3 .1-8.5 4.3c-.1.1-.2.1-.3.2l-.1.1q-2.85 2.25-6 5.1m105.4 76.5c-3.7-4.7-9.1-10.3-16.9-18.1-1.3-2-2-4.4-2.1-6.8l-1-23.7 11.3 11.3c22.1 22.1 33.1 33.1 33.1 46.8 0 11.7-8 21.4-24 37.7-2.8 2.8-5.8 5.9-9.1 9.1L326.8 314l-.1.1 1.1-22.7c.2-3.2 1.4-6.2 3.5-8.5l8.3-9.4c2.6-2.8 4.8-5.2 6.6-7.5l1-1.2v-.1c.1-.1.2-.2.2-.3 4.2-5.5 4.3-7.6 4.3-8.5s-.1-3-4.3-8.5c-.1-.1-.2-.2-.2-.3v-.1z"/><path d="m165.1 247 15.1-16.5c2.1-2.3 3.4-5.3 3.6-8.5l.8-12.9c.1-4.1.3-7.6.7-10.6l.1-.9.1-.1v-.3c.9-6.9 2.3-8.4 3-9 .6-.6 2.2-2 9-3 2.2-.3 4.6-.5 7.4-.7l18.6-1.8c3-.3 5.8-1.5 8-3.6l15.7-14.4h-16c-31.2 0-46.8 0-56.5 9.7-8.3 8.3-9.5 20.8-9.7 43.6v29zm162.5-37 .9 12.3c.2 3.1 1.5 6.1 3.6 8.4l15.1 16.4V231c0-31.2 0-46.8-9.7-56.5s-25.3-9.7-56.5-9.7h-16.2l16.2 14.7c2.3 2.1 5.2 3.3 8.2 3.6l18.8 1.5c1.8.1 3.4.2 5 .4l1.4.1.1.1h.3c6.9.9 8.4 2.3 9 3 .6.6 2 2.2 3 9 .4 3.6.7 7.7.8 12.8M185.5 314v.1zm12.5 12.5 20.5.9c-8.8 0-15.3-.2-20.5-.9m-13.3-34.8c0-.9-.2-1.8-.4-2.7.1.6.2 1.2.2 1.8l.1 2.3c.1 8.8.3 15.3.9 20.4v.5l.1.1z"/><path d="M141.1 255.9c0 11.7 8 21.4 24 37.7v-28.9c-.1-.1-.2-.2-.2-.3-4.2-5.5-4.3-7.6-4.3-8.5s.1-3 4.3-8.5c.1-.1.2-.2.3-.4v-28.9c-16.1 16.3-24.1 26.1-24.1 37.8m106.6 91.3c-.1-.1-.2-.1-.2-.2l-.1-.1h-28.9c16.3 16 26 24 37.7 24s21.4-8 37.7-24H265c-.1.1-.2.2-.4.3-5.5 4.2-7.6 4.3-8.5 4.3-.8 0-2.9-.1-8.4-4.3"/><path d="M173.3 274c-3.3-3.5-6-6.5-8.1-9.2l-.1-.1v28.9c2.8 2.8 5.8 5.9 9.1 9.1l11.2 11.2v-.5c-.6-5.2-.8-11.6-.9-20.4l-.1-2.3c0-.6-.1-1.2-.2-1.8-.5-2.2-1.6-4.2-3.1-5.9z"/><path d="M197.6 326.4c-6.9-.9-8.4-2.3-9-3-.6-.6-2-2.2-3-9v-.3l-.1-.1v-.1l-11.2-11.2-9.1-9.1c.2 22.8 1.4 35.4 9.7 43.6 8.3 8.3 20.8 9.5 43.6 9.7-2.8-2.8-5.9-5.8-9.1-9.1L198 326.5c-.1 0-.3 0-.4-.1"/><path d="M230.2 331.2c-2.4-2.2-5.5-3.5-8.7-3.6l-2.9-.1c-8.8-.1-15.3-.3-20.5-.9l11.3 11.3 9.1 9.1h28.9l-.1-.1c-.2-.1-.3-.2-.5-.4-4.2-3.3-9-7.9-15.5-14.3zm84-4.6h-.8c-3.4.4-7.3.6-12.1.7l-11.1.7c-3.2.2-6.1 1.5-8.5 3.6l-.3.2c-7 6.9-12 11.7-16.4 15.1h28.9l9.1-9.1z"/><path d="M347.2 293.6c-2.8 2.8-5.8 5.9-9.1 9.1L326.8 314l-.1.5c-.9 6.9-2.3 8.4-3 9-.6.6-2.2 2-9 3l-.5.1h-.8.8L303 337.8l-9.1 9.1c22.8-.2 35.4-1.4 43.6-9.7 8.3-8.3 9.5-20.8 9.7-43.6"/><path d="M264.6 347.2c-5.5 4.2-7.6 4.3-8.5 4.3s-3-.1-8.5-4.3c-.1-.1-.2-.1-.2-.2l-.1-.1m17.3.3c.1-.1.2-.2.4-.3m-.4.3 16.8-15.4m-95.9-17.7v.3m0-.3-.1-.2m.1.2v-.1m0 .1v.3m12.5 12.1 11.3 11.3 9.1 9.1M198 326.5l20.5.9m-20.5-.9c5.2.7 11.6.9 20.5.9m-20.5-.9c-.2 0-.3 0-.5-.1m129.2-12c-.9 6.9-2.3 8.4-3 9-.6.6-2.2 2-9 3m12-12 .1-.5m-.1.5c0-.2 0-.3.1-.5m-12.1 12.5c-.2 0-.3 0-.5.1m.5-.1-.5.1m.1 0-.6.1m0 0h-.3m.3 0h-.3m-66.2 20.3-.5-.5m-49.1-20c-6.9-.9-8.4-2.3-9-3-.6-.6-2-2.2-3-9m12 12c5.2.7 11.8.9 20.9 1m-33-13.4-.9-22.3c0-.9-.2-1.8-.4-2.7m1.3 24.9v-.5c-.6-5.2-.8-11.6-.9-20.4l-.1-2.3c0-.6-.1-1.2-.2-1.8m1.2 25-11.2-11.2-9.1-9.1m53.3 33.8h3.8c3 .3 5.8 1.6 8.1 3.7l16.4 15.3m-28.3-19 2.9.1c3.2.2 6.3 1.4 8.7 3.6l1 .9c6.5 6.4 11.3 11 15.5 14.3m-62.3-57.4c-.5-2.6-1.6-5-3.4-7l-15.8-17.3v.1m19.2 24.2c-.5-2.2-1.6-4.2-3.1-5.9l-7.9-9c-3.3-3.5-6-6.5-8.1-9.2l-.1-.1m0 28.9c-16-16.3-24-26-24-37.7s8-21.4 24-37.7m0 75.4v-28.9m0 28.9c.2 22.8 1.4 35.4 9.7 43.6 8.3 8.3 20.8 9.5 43.6 9.7m-53.3-82.2c-.1-.2-.2-.3-.3-.4-4.2-5.5-4.3-7.6-4.3-8.5s.1-3 4.3-8.5c.1-.1.2-.2.3-.4m0 .1v-28.9m0 28.9 15.1-16.4c2.1-2.3 3.4-5.3 3.6-8.5l.8-12.9c.1-4.1.3-7.6.7-10.6l.1-.9.1-.1v-.3c.9-6.9 2.3-8.4 3-9 .6-.6 2.2-2 9-3 2.2-.3 4.6-.5 7.4-.7l18.6-1.8c3-.3 5.8-1.5 8-3.6l15.7-14.4h-16c-31.2 0-46.8 0-56.5 9.7-8.3 8.3-9.5 20.8-9.7 43.6m.1 28.9c1.5-1.9 3.2-3.9 5.2-6.1l11.2-13.7c1.9-2.3 3-5.2 3.1-8.2l.9-21.4-11.3 11.4-9.1 9.1m82.2 128.8h-28.9m28.9 0-.1-.1c-.2-.1-.3-.2-.5-.4m-28.2.5c16.3 16 26 24 37.7 24s21.4-8 37.7-24m0 0H265m28.9 0c22.8-.2 35.4-1.4 43.6-9.7 8.3-8.3 9.5-20.8 9.7-43.6m-53.3 53.3 9.1-9.1 11.2-11.2h-.8M265 346.9c4.4-3.4 9.5-8.2 16.4-15.1m32-5.2c-3.4.4-7.3.6-12.1.7l-11.1.7c-3.2.2-6.1 1.5-8.5 3.6l-.3.2m32-5.2-22.2.7c-3.2.1-6.4 1.4-8.8 3.5l-1 1m65.8-38.2c-2.8 2.8-5.8 5.9-9.1 9.1L326.8 314m20.4-20.4v-29l-16.1 17.5c-1.6 1.8-2.7 3.9-3.3 6.2 0 11.3-.2 19.2-.9 25.3v.3m20.3-20.3c16-16.3 24-26 24-37.7 0-13.7-11-24.7-33.1-46.8l-11.3-11.3 1 23.7c.1 2.4.8 4.8 2.1 6.8 7.8 7.8 13.1 13.4 16.9 18.1l.5.5v.1c.1.1.2.2.2.3 4.2 5.5 4.3 7.6 4.3 8.5s-.1 3-4.3 8.5c-.1.1-.2.2-.2.3v.1l-1 1.2q-2.7 3.3-6.6 7.5l-8.3 9.4a14.3 14.3 0 0 0-3.5 8.5l-1.1 22.7.1-.1m-85.6-144L228.2 181c-2.3 2-5.3 3.1-8.3 3.3l-21.9 1 11.4-11.4c22.1-22.1 33.1-33.1 46.8-33.1s24.7 11 46.8 33.1l11.4 11.4-22.2-1c-3.1-.1-6.1-1.3-8.5-3.4l-9.9-8.5c-3.5-3.3-6.4-5.9-9.1-7.9-5.5-4.2-7.6-4.3-8.5-4.3s-3 .1-8.5 4.3c-.1.1-.2.1-.3.2l-.1.1q-2.85 2.25-6 5.1zm87.2 52.4-.9-12.3c-.1-5.1-.4-9.2-.9-12.7-.9-6.9-2.3-8.4-3-9-.6-.6-2.2-2-9-3h-.3l-.1-.1-1.4-.1c-1.5-.2-3.2-.3-5-.4l-18.8-1.5c-3.1-.2-5.9-1.5-8.2-3.6l-16.2-14.7H281c31.2 0 46.8 0 56.5 9.7s9.7 25.3 9.7 56.5v16.1l-15.1-16.4c-2.1-2.5-3.4-5.4-3.6-8.5z" class="st1"/></svg>