<svg width="121" height="121" viewBox="0 0 121 121" fill="none" xmlns="http://www.w3.org/2000/svg">
<path d="M60.5 0.5C27.364 0.5 0.5 27.364 0.5 60.5C0.5 93.636 27.364 120.5 60.5 120.5C93.636 120.5 120.5 93.636 120.5 60.5C120.5 27.364 93.636 0.5 60.5 0.5Z" fill="#C6FE1E"/>
<mask id="mask0_1_321" style="mask-type:luminance" maskUnits="userSpaceOnUse" x="18" y="27" width="91" height="76">
<path d="M108.5 27.5002H18.5V102.5H108.5V27.5002Z" fill="white"/>
</mask>
<g mask="url(#mask0_1_321)">
<path d="M53.3412 44.8038H53.3012C50.8212 44.0918 48.1972 45.5158 47.3572 47.8678C46.4292 50.3958 47.9012 53.2918 50.5012 54.0918C56.8692 55.8998 59.6052 46.7718 53.3412 44.8038Z" fill="#0D0D0D"/>
<path d="M107.614 57.7079C99.4138 39.7479 73.2538 47.1799 70.8378 42.4759C63.7578 31.3639 50.5418 25.1239 36.2538 28.3399C34.0538 27.4599 26.4778 27.2199 21.5818 30.2999L24.5338 31.6039C24.7578 31.6999 24.6938 31.6759 25.0218 31.7959C26.3578 32.2999 26.1258 32.1559 25.1658 32.6839C22.9658 33.9719 20.2218 35.4679 18.5098 37.7159C18.5818 37.8199 22.2778 38.7079 22.2778 38.7079C22.3418 38.7239 23.0298 38.7959 22.8778 39.0999C10.7898 58.1879 31.1738 86.9959 41.0698 102.5H69.7178C65.2938 94.5799 60.2378 83.7719 61.9658 76.4359C62.2778 75.1079 62.6778 73.4199 64.3098 73.1959C68.2538 72.5639 73.5338 72.6199 77.2938 72.1959C77.2938 72.1959 77.3124 72.1959 77.3498 72.1959C78.1498 72.1559 97.7338 69.6679 102.422 81.8759C102.822 82.9959 103.742 82.2679 104.11 81.5319C107.606 74.5799 109.862 63.6359 107.63 57.7159L107.614 57.7079ZM75.9978 51.8119C74.6218 54.2679 73.6858 57.4599 73.4458 60.2439C73.3178 62.0119 73.5018 63.7559 73.6778 65.5239C73.7738 66.4999 73.7818 67.7319 72.9978 68.3719C72.3178 68.9479 71.1898 69.0039 70.0538 69.0839C64.4778 69.0599 50.8778 69.0839 45.6378 65.5159L45.6058 65.4919C37.9818 60.8439 33.9018 50.3479 38.4298 42.1959C39.8938 39.4279 42.5898 37.6279 45.6618 36.9479C49.6138 36.0439 53.9658 36.7159 57.4938 38.5639C58.9338 39.2919 60.6538 40.2519 61.9658 41.3559C64.5658 43.6279 66.7898 45.9879 70.1978 46.7159C71.7658 47.1639 73.3978 47.0999 74.9658 47.4199C77.9018 48.1239 77.1658 49.7959 75.9898 51.7959L75.9978 51.8119Z" fill="#0D0D0D"/>
</g>
</svg>
