<svg width="75" height="75" viewBox="33 0 75 75" fill="none" xmlns="http://www.w3.org/2000/svg">
<path d="M33 18.75C33 8.39466 41.3947 0 51.75 0H89.25C99.6053 0 108 8.39466 108 18.75V56.25C108 66.6053 99.6053 75 89.25 75H51.75C41.3947 75 33 66.6053 33 56.25V18.75Z" fill="#1868DB"/>
<g clip-path="url(#clip0_55714_36330)">
<path d="M61.0429 48.5103H56.817C50.4434 48.5103 45.8711 44.6064 45.8711 38.89H68.5942C69.772 38.89 70.534 39.7265 70.534 40.9116V63.7773C64.8532 63.7773 61.0429 59.1763 61.0429 52.7628V48.5103ZM72.266 37.1472H68.04C61.6664 37.1472 57.0941 33.313 57.0941 27.5965H79.8172C80.995 27.5965 81.8263 28.3634 81.8263 29.5485V52.4142C76.1455 52.4142 72.266 47.8132 72.266 41.3996V37.1472ZM83.5582 25.8537H79.3323C72.9587 25.8537 68.3864 21.9498 68.3864 16.2334H91.1095C92.2873 16.2334 93.0493 17.0699 93.0493 18.1853V41.0511C87.3685 41.0511 83.5582 36.45 83.5582 30.0365V25.8537Z" fill="white"/>
</g>
<defs>
<clipPath id="clip0_55714_36330">
<rect width="47.1782" height="47.5439" fill="white" transform="translate(45.8711 16.2344)"/>
</clipPath>
</defs>
</svg>
