<svg xmlns="http://www.w3.org/2000/svg" fill="none" viewBox="4 4 36 38"><path fill="url(#a)" d="M21.9999 20h12c3.3137 0 6 2.6863 6 6v10c0 3.3137-2.6863 6-6 6s-6-2.6863-6-6V26c0-3.3137-2.6863-6-6-6"/><path fill="url(#b)" d="M7.99988 24c0-3.3137 2.68632-6 6.00002-6h8c3.3137 0 6 2.6863 6 6v12c0 3.3137 2.6863 6 6 6l-16.0001-.0001c-5.5228 0-9.99992-4.4771-9.99992-10z"/><path fill="url(#c)" fill-opacity=".7" d="M7.99988 24c0-3.3137 2.68632-6 6.00002-6h8c3.3137 0 6 2.6863 6 6v12c0 3.3137 2.6863 6 6 6l-16.0001-.0001c-5.5228 0-9.99992-4.4771-9.99992-10z"/><path fill="url(#d)" fill-opacity=".7" d="M7.99988 24c0-3.3137 2.68632-6 6.00002-6h8c3.3137 0 6 2.6863 6 6v12c0 3.3137 2.6863 6 6 6l-16.0001-.0001c-5.5228 0-9.99992-4.4771-9.99992-10z"/><path fill="url(#e)" d="M32.9999 18c2.7614 0 5-2.2386 5-5s-2.2386-5-5-5-5 2.2386-5 5 2.2386 5 5 5"/><path fill="url(#f)" fill-opacity=".46" d="M32.9999 18c2.7614 0 5-2.2386 5-5s-2.2386-5-5-5-5 2.2386-5 5 2.2386 5 5 5"/><path fill="url(#g)" fill-opacity=".4" d="M32.9999 18c2.7614 0 5-2.2386 5-5s-2.2386-5-5-5-5 2.2386-5 5 2.2386 5 5 5"/><path fill="url(#h)" d="M17.9999 16c3.3137 0 6-2.6863 6-6 0-3.31371-2.6863-6-6-6s-6 2.68629-6 6c0 3.3137 2.6863 6 6 6"/><path fill="url(#i)" fill-opacity=".6" d="M17.9999 16c3.3137 0 6-2.6863 6-6 0-3.31371-2.6863-6-6-6s-6 2.68629-6 6c0 3.3137 2.6863 6 6 6"/><path fill="url(#j)" fill-opacity=".5" d="M17.9999 16c3.3137 0 6-2.6863 6-6 0-3.31371-2.6863-6-6-6s-6 2.68629-6 6c0 3.3137 2.6863 6 6 6"/><rect width="16" height="16" x="4" y="23" fill="url(#k)" rx="3.25"/><rect width="16" height="16" x="4" y="23" fill="url(#l)" fill-opacity=".7" rx="3.25"/><path fill="#fff" d="M15.4792 28.1054h-2.4471v7.466h-2.0648v-7.466H8.52014v-1.6768h6.95906z"/><defs><radialGradient id="a" cx="0" cy="0" r="1" gradientTransform="matrix(13.4784 0 0 33.2694 39.7967 22.1739)" gradientUnits="userSpaceOnUse"><stop stop-color="#a98aff"/><stop offset=".14" stop-color="#8c75ff"/><stop offset=".565" stop-color="#5f50e2"/><stop offset=".9" stop-color="#3c2cb8"/></radialGradient><radialGradient id="b" cx="0" cy="0" r="1" gradientTransform="rotate(68.1539 -7.71566095 14.71355834)scale(32.752 33.1231)" gradientUnits="userSpaceOnUse"><stop stop-color="#85c2ff"/><stop offset=".69" stop-color="#7588ff"/><stop offset="1" stop-color="#6459fe"/></radialGradient><radialGradient id="d" cx="0" cy="0" r="1" gradientTransform="rotate(113.326 8.09285255 17.64474501)scale(19.2186 15.4273)" gradientUnits="userSpaceOnUse"><stop stop-color="#bd96ff"/><stop offset=".686685" stop-color="#bd96ff" stop-opacity="0"/></radialGradient><radialGradient id="e" cx="0" cy="0" r="1" gradientTransform="matrix(0 -10 12.6216 0 32.9999 11.5714)" gradientUnits="userSpaceOnUse"><stop offset=".268201" stop-color="#6868f7"/><stop offset="1" stop-color="#3923b1"/></radialGradient><radialGradient id="f" cx="0" cy="0" r="1" gradientTransform="rotate(40.0516 -.03068196 44.8729095)scale(7.14629 10.3363)" gradientUnits="userSpaceOnUse"><stop offset=".270711" stop-color="#a1d3ff"/><stop offset=".813393" stop-color="#a1d3ff" stop-opacity="0"/></radialGradient><radialGradient id="g" cx="0" cy="0" r="1" gradientTransform="rotate(-41.6581 32.11799918 -43.41948423)scale(8.51275 20.8824)" gradientUnits="userSpaceOnUse"><stop stop-color="#e3acfd"/><stop offset=".816041" stop-color="#9fa2ff" stop-opacity="0"/></radialGradient><radialGradient id="h" cx="0" cy="0" r="1" gradientTransform="matrix(0 -12 15.146 0 17.9999 8.28571)" gradientUnits="userSpaceOnUse"><stop offset=".268201" stop-color="#8282ff"/><stop offset="1" stop-color="#3923b1"/></radialGradient><radialGradient id="i" cx="0" cy="0" r="1" gradientTransform="rotate(40.0516 -3.15465147 21.41641466)scale(8.57554 12.4035)" gradientUnits="userSpaceOnUse"><stop offset=".270711" stop-color="#a1d3ff"/><stop offset=".813393" stop-color="#a1d3ff" stop-opacity="0"/></radialGradient><radialGradient id="j" cx="0" cy="0" r="1" gradientTransform="rotate(-41.6581 20.38180375 -26.51566158)scale(10.2153 25.0589)" gradientUnits="userSpaceOnUse"><stop stop-color="#e3acfd"/><stop offset=".816041" stop-color="#9fa2ff" stop-opacity="0"/></radialGradient><radialGradient id="k" cx="0" cy="0" r="1" gradientTransform="rotate(45 -25.76345597 16.32842712)scale(22.6274)" gradientUnits="userSpaceOnUse"><stop offset=".046875" stop-color="#688eff"/><stop offset=".946875" stop-color="#230f94"/></radialGradient><radialGradient id="l" cx="0" cy="0" r="1" gradientTransform="matrix(0 11.2 -13.0702 0 12 32.6)" gradientUnits="userSpaceOnUse"><stop offset=".570647" stop-color="#6965f6" stop-opacity="0"/><stop offset="1" stop-color="#8f8fff"/></radialGradient><linearGradient id="c" x1="20.5936" x2="20.5936" y1="18" y2="42" gradientUnits="userSpaceOnUse"><stop offset=".801159" stop-color="#6864f6" stop-opacity="0"/><stop offset="1" stop-color="#5149de"/></linearGradient></defs></svg>