<svg version="1.1" id="Layer_1" xmlns:x="ns_extend;" xmlns:i="ns_ai;" xmlns:graph="ns_graphs;" xmlns="http://www.w3.org/2000/svg" xmlns:xlink="http://www.w3.org/1999/xlink" x="0px" y="0px" viewBox="0 0 63 63" style="enable-background:new 0 0 63 63;" xml:space="preserve">
 <style type="text/css">
  .st0{fill-rule:evenodd;clip-rule:evenodd;fill:#FFFFFF;}
 </style>
 <metadata>
  <sfw xmlns="ns_sfw;">
   <slices>
   </slices>
   <sliceSourceBounds bottomLeftOrigin="true" height="63" width="63" x="63.3" y="-218.2">
   </sliceSourceBounds>
 </sfw>
</metadata>
 <rect x="3" y="3" width="57" height="57" rx="12" fill="#000000"></rect>
 <g transform="translate(7 7)">
  <g transform="scale(0.77777778)">
   <path class="st0" d="M34.6,0.4l-1.3,16c-0.6-0.1-1.2-0.1-1.9-0.1c-0.8,0-1.6,0.1-2.3,0.2l-0.7-7.7c0-0.2,0.2-0.5,0.4-0.5h1.3
		l-0.6-7.8c0-0.2,0.2-0.5,0.4-0.5h4.3C34.5,0,34.7,0.2,34.6,0.4L34.6,0.4L34.6,0.4z M23.8,1.2c-0.1-0.2-0.3-0.4-0.5-0.3l-4,1.5
		C19,2.5,18.9,2.8,19,3l3.3,7.1l-1.2,0.5c-0.2,0.1-0.3,0.3-0.2,0.6l3.3,7c1.2-0.7,2.5-1.2,3.9-1.5L23.8,1.2L23.8,1.2z M14,5.7
		l9.3,13.1c-1.2,0.8-2.2,1.7-3.1,2.7L14.5,16c-0.2-0.2-0.2-0.5,0-0.6l1-0.8L10,9c-0.2-0.2-0.2-0.5,0-0.6l3.3-2.7
		C13.5,5.4,13.8,5.5,14,5.7L14,5.7z M6.2,13.2c-0.2-0.1-0.5-0.1-0.6,0.1l-2.1,3.7c-0.1,0.2,0,0.5,0.2,0.6l7.1,3.4l-0.7,1.1
		c-0.1,0.2,0,0.5,0.2,0.6l7.1,3.2c0.5-1.3,1.2-2.5,2-3.6L6.2,13.2z M0.9,23.3c0-0.2,0.3-0.4,0.5-0.3l15.5,4
		c-0.4,1.3-0.6,2.7-0.7,4.1l-7.8-0.6c-0.2,0-0.4-0.2-0.4-0.5l0.2-1.3L0.6,28c-0.2,0-0.4-0.2-0.4-0.5L0.9,23.3L0.9,23.3L0.9,23.3z
		 M0.4,33.8C0.1,33.8,0,34,0,34.3l0.8,4.2c0,0.2,0.3,0.4,0.5,0.3l7.6-2l0.2,1.3c0,0.2,0.3,0.4,0.5,0.3l7.5-2.1
		c-0.4-1.3-0.7-2.7-0.8-4.1L0.4,33.8L0.4,33.8z M2.9,44.9c-0.1-0.2,0-0.5,0.2-0.6l14.5-6.9c0.5,1.3,1.3,2.5,2.2,3.6l-6.3,4.5
		c-0.2,0.1-0.5,0.1-0.6-0.1L12,44.3l-6.5,4.5c-0.2,0.1-0.5,0.1-0.6-0.1L2.9,44.9L2.9,44.9z M20.4,41.9L9.1,53.3
		c-0.2,0.2-0.2,0.5,0,0.6l3.3,2.7c0.2,0.2,0.5,0.1,0.6-0.1l4.6-6.4l1,0.9c0.2,0.2,0.5,0.1,0.6-0.1l4.4-6.4
		C22.4,43.8,21.3,42.9,20.4,41.9L20.4,41.9z M18.2,60.1c-0.2-0.1-0.3-0.3-0.2-0.6L24.6,45c1.2,0.6,2.6,1.1,3.9,1.4l-2,7.5
		c-0.1,0.2-0.3,0.4-0.5,0.3l-1.2-0.5l-2.1,7.6c-0.1,0.2-0.3,0.4-0.5,0.3L18.2,60.1L18.2,60.1L18.2,60.1z M29.6,46.6l-1.3,16
		c0,0.2,0.2,0.5,0.4,0.5H33c0.2,0,0.4-0.2,0.4-0.5l-0.6-7.8h1.3c0.2,0,0.4-0.2,0.4-0.5l-0.7-7.7c-0.8,0.1-1.5,0.2-2.3,0.2
		C30.9,46.7,30.2,46.7,29.6,46.6L29.6,46.6z M45.1,3.4c0.1-0.2,0-0.5-0.2-0.6l-4-1.5c-0.2-0.1-0.5,0.1-0.5,0.3l-2.1,7.6l-1.2-0.5
		c-0.2-0.1-0.5,0.1-0.5,0.3l-2,7.5c1.4,0.3,2.7,0.8,3.9,1.4L45.1,3.4L45.1,3.4z M53.9,9.7L42.6,21.1c-0.9-1-2-1.9-3.2-2.6l4.4-6.4
		c0.1-0.2,0.4-0.2,0.6-0.1l1,0.9l4.6-6.4c0.1-0.2,0.4-0.2,0.6-0.1l3.3,2.7C54,9.3,54,9.6,53.9,9.7L53.9,9.7z M59.9,18.7
		c0.2-0.1,0.3-0.4,0.2-0.6L58,14.4c-0.1-0.2-0.4-0.3-0.6-0.1l-6.5,4.5l-0.7-1.1c-0.1-0.2-0.4-0.3-0.6-0.1L43.3,22
		c0.9,1.1,1.6,2.3,2.2,3.6L59.9,18.7L59.9,18.7z M62.2,24.5l0.7,4.2c0,0.2-0.1,0.5-0.4,0.5l-15.9,1.5c-0.1-1.4-0.4-2.8-0.8-4.1
		l7.5-2.1c0.2-0.1,0.5,0.1,0.5,0.3l0.2,1.3l7.6-2C61.9,24.1,62.1,24.3,62.2,24.5L62.2,24.5L62.2,24.5z M61.5,40
		c0.2,0.1,0.5-0.1,0.5-0.3l0.7-4.2c0-0.2-0.1-0.5-0.4-0.5l-7.8-0.7l0.2-1.3c0-0.2-0.1-0.5-0.4-0.5l-7.8-0.6c0,1.4-0.3,2.8-0.7,4.1
		L61.5,40L61.5,40L61.5,40z M57.4,49.6c-0.1,0.2-0.4,0.3-0.6,0.1l-13.2-9.1c0.8-1.1,1.5-2.3,2-3.6l7.1,3.2c0.2,0.1,0.3,0.4,0.2,0.6
		L52.2,42l7.1,3.4c0.2,0.1,0.3,0.4,0.2,0.6L57.4,49.6C57.4,49.6,57.4,49.6,57.4,49.6z M39.7,44.2L49,57.3c0.1,0.2,0.4,0.2,0.6,0.1
		l3.3-2.7c0.2-0.2,0.2-0.4,0-0.6l-5.5-5.6l1-0.8c0.2-0.2,0.2-0.4,0-0.6l-5.5-5.5C42,42.6,40.9,43.5,39.7,44.2L39.7,44.2L39.7,44.2z
		 M39.7,62c-0.2,0.1-0.5-0.1-0.5-0.3l-4.2-15.4c1.4-0.3,2.7-0.8,3.9-1.5l3.3,7c0.1,0.2,0,0.5-0.2,0.6l-1.2,0.5l3.3,7.1
		c0.1,0.2,0,0.5-0.2,0.6L39.7,62L39.7,62L39.7,62z">
   </path>
  </g>
 </g>
</svg>
