<svg xmlns="http://www.w3.org/2000/svg" width="256" height="256" viewBox="0 0 256 256"><defs><clipPath id="oyster-rounded"><rect width="256" height="256" rx="48" ry="48"/></clipPath></defs><rect width="256" height="256" fill="#f5dbe2" rx="48" ry="48"/><g clip-path="url(#oyster-rounded)"><svg x="38" y="38" width="180" height="180" viewBox="0 0 2375 2020" preserveAspectRatio="xMidYMid meet"><path d="M1187.46 1741.53C1423.17 1741.53 1596.26 1568.23 1596.26 1329.32C1596.26 1090.42 1423.17 917.115 1187.46 917.115C951.761 917.115 778.672 1090.42 778.672 1329.32C778.896 1568.23 951.761 1741.53 1187.46 1741.53ZM1187.46 0C1882.72 0 2374.93 418.255 2374.93 1009.81C2374.93 1601.37 1882.5 2019.62 1187.46 2019.62C492.429 2019.62 0 1601.37 0 1009.81C0 418.255 492.429 0 1187.46 0Z" fill="#0f3d2e"/></svg></g></svg>
