<svg id="e1SMbtUrJyf1" xmlns="http://www.w3.org/2000/svg" xmlns:xlink="http://www.w3.org/1999/xlink"
    viewBox="90 -3 72 72" shape-rendering="geometricPrecision"
    text-rendering="geometricPrecision">
    <a href="https://peachpayments.com" target="_blank">
        <g transform="matrix(.351935 0 0 0.351935 78.6825 4.10322)" opacity="0">
            <g transform="translate(-164-337)">
                <path
                    d="M381.17525,554.05495v-243.1738c0-12.6675-10.2691-22.9366-22.9366-22.9366h-121.4769c-12.6678,0-22.937,10.2691-22.937,22.937v107.8246c0,1.2666,1.0272,2.2934,2.2939,2.2934h29.281v110.1189c0,12.6674,10.2695,22.9365,22.9369,22.9365h112.8387Zm-9.6295-9.6294h-103.2092c-7.3375,0-13.3071-5.9696-13.3071-13.3071v-110.1189-9.629h-9.6298-21.945v-100.4894c0-7.3376,5.9695-13.3072,13.3071-13.3072h121.4769c7.3376,0,13.3071,5.9696,13.3071,13.3072v233.5444Z"
                    transform="matrix(0-1 1 0-347.516 716.608)" fill="#ff4201" fill-rule="evenodd" />
            </g>
        </g>
        <g transform="translate(125,32.999899) scale(1,1)">
            <g transform="translate(-31.966555,-33.195)">
                <path
                    d="M56.91,9.1v31.41c-.005465,2.15879-1.751231,3.909021-3.91,3.92h-28.29v12.88h-12.09c-2.16658,0-3.924487-1.753427-3.93-3.92v-40.39c.005513-2.166573,1.76342-3.92,3.93-3.92l44.29.02ZM65,1h-52.38c-6.627417,0-12,5.372583-12,12v40.39c0,6.627417,5.372583,12,12,12h18.38c.999635,0,1.81-.810365,1.81-1.81v-11.05h20.19c6.627417,0,12-5.372583,12-12L65,1Z"
                    fill="#ff4201" />
            </g>
        </g>
    </a>
</svg>