<svg version="1.1" id="Layer_1" xmlns:x="ns_extend;" xmlns:i="ns_ai;" xmlns:graph="ns_graphs;" xmlns="http://www.w3.org/2000/svg" xmlns:xlink="http://www.w3.org/1999/xlink" x="0px" y="0px" viewBox="0 0 39.2 52" style="enable-background:new 0 0 39.2 52;" xml:space="preserve">
 <style type="text/css">
  .st0{fill:#5700FF;}
 </style>
 <metadata>
  <sfw xmlns="ns_sfw;">
   <slices>
   </slices>
   <sliceSourceBounds bottomLeftOrigin="true" height="52" width="39.2" x="82.2" y="-226.2">
   </sliceSourceBounds>
  </sfw>
 </metadata>
 <g>
  <g>
   <path class="st0" d="M38.7,40.1h0.5V52h-2c-12.8,0-20.1-7.2-20.1-19v-6.1l4.1-1c2.5-0.6,4.4-2.6,4.9-5.1c0.5-2.5-0.4-5.1-2.4-6.6
			c-4.4-3.4-10.7-0.3-10.8,5.2v26H0V19c0-0.8,0.1-1.6,0.1-2.4C1.5,7,9.9-0.1,19.6,0c8.8-0.1,16.5,5.7,19,14.1
			c1.2,4.2,0.8,8.8-1.1,12.8c-1.6,3.4-4.1,6.2-7.3,8.2c1.1,4.3,3.3,5.1,8.4,5.1">
   </path>
  </g>
 </g>
</svg>