<svg width="64" height="64" viewBox="0 0 24 21" fill="none" xmlns="http://www.w3.org/2000/svg">
<path d="M22.221 6.95202C21.5365 5.90808 20.6409 5.01921 19.5917 4.34273C17.2116 2.84914 14.4486 2.07968 11.639 2.12801C10.6573 2.12668 9.67754 2.21375 8.71148 2.38816C8.10892 1.80317 7.43296 1.2989 6.70054 0.887971C5.73441 0.386031 4.67479 0.089608 3.58845 0.0173741C2.50211 -0.0548598 1.41257 0.0986612 0.388487 0.468266C0.297564 0.502012 0.216383 0.557695 0.15216 0.630367C0.0879368 0.70304 0.0426592 0.790451 0.0203504 0.884835C-0.00195846 0.979218 -0.000607628 1.07765 0.0242828 1.17139C0.0491733 1.26512 0.0968326 1.35126 0.163026 1.42214C1.01458 2.31532 2.42805 4.07565 2.08118 5.67036C0.781342 6.93835 0.0335892 8.66753 0 10.4831C0.0267292 12.3097 0.774878 14.0517 2.08118 15.3288C2.42805 16.927 1.01805 18.6847 0.166495 19.5779C0.100091 19.6487 0.0522467 19.7348 0.0272322 19.8286C0.00221773 19.9223 0.000811086 20.0209 0.0231378 20.1153C0.0454646 20.2098 0.0908301 20.2972 0.155186 20.3699C0.219541 20.4426 0.300885 20.4982 0.391956 20.5317C1.41606 20.9017 2.50568 21.0555 3.59217 20.9836C4.67866 20.9117 5.73849 20.6155 6.70488 20.1138C7.43794 19.7027 8.11449 19.1981 8.71756 18.6127C9.68361 18.7871 10.6634 18.8742 11.6451 18.8729C14.4546 18.9217 17.2176 18.1525 19.5978 16.659C20.6454 15.9817 21.5394 15.0922 22.2218 14.048C22.9135 12.9935 23.2819 11.7598 23.2819 10.4987C23.2819 9.23758 22.9135 8.00395 22.2218 6.94942L22.221 6.95202ZM11.5185 16.8125C10.2913 16.8161 9.06898 16.6575 7.88335 16.3408L7.06562 17.1359C6.61178 17.5737 6.10454 17.9525 5.55589 18.2632C4.88922 18.5993 4.16467 18.8053 3.42094 18.8703C3.46083 18.7974 3.49725 18.7237 3.53628 18.6509C3.91994 18.0476 4.17663 17.3724 4.29069 16.6666C4.40475 15.9608 4.37377 15.2392 4.19965 14.5457C3.5682 14.1012 3.04672 13.5182 2.67505 12.8413C2.30338 12.1644 2.09135 11.4114 2.05517 10.64C2.05517 7.23211 6.29211 4.46847 11.5185 4.46847C16.7449 4.46847 20.9853 7.23124 20.9853 10.64C20.9853 14.0489 16.7457 16.8125 11.5185 16.8125V16.8125Z" fill="#F5455C"/>
<path d="M6.98878 9.22053C6.71175 9.2195 6.44064 9.30071 6.2098 9.45387C5.97895 9.60703 5.79875 9.82526 5.69202 10.0809C5.58529 10.3366 5.55683 10.6181 5.61025 10.89C5.66366 11.1618 5.79655 11.4117 5.99208 11.6079C6.1876 11.8042 6.43698 11.938 6.70861 11.9924C6.98025 12.0469 7.26193 12.0195 7.51797 11.9137C7.77402 11.8079 7.99291 11.6285 8.14694 11.3982C8.30096 11.168 8.38317 10.8972 8.38318 10.6201C8.38352 10.4367 8.34772 10.2549 8.27783 10.0853C8.20794 9.9157 8.10533 9.7615 7.97585 9.63154C7.84636 9.50157 7.69255 9.39839 7.52319 9.32786C7.35383 9.25734 7.17224 9.22087 6.98878 9.22053V9.22053Z" fill="#F5455C"/>
<path d="M11.4819 9.22053C11.2049 9.2195 10.9338 9.30071 10.703 9.45387C10.4721 9.60703 10.2919 9.82526 10.1852 10.0809C10.0785 10.3366 10.05 10.6181 10.1034 10.89C10.1568 11.1618 10.2897 11.4117 10.4852 11.6079C10.6808 11.8042 10.9301 11.938 11.2018 11.9924C11.4734 12.0469 11.7551 12.0195 12.0111 11.9137C12.2672 11.8079 12.4861 11.6285 12.6401 11.3982C12.7941 11.168 12.8763 10.8972 12.8763 10.6201C12.8767 10.4367 12.8409 10.2549 12.771 10.0853C12.7011 9.9157 12.5985 9.7615 12.469 9.63154C12.3395 9.50157 12.1857 9.39839 12.0164 9.32786C11.847 9.25734 11.6654 9.22087 11.4819 9.22053V9.22053Z" fill="#F5455C"/>
<path d="M15.97 9.22048C15.6929 9.2191 15.4216 9.30002 15.1906 9.45297C14.9595 9.60592 14.779 9.82403 14.672 10.0796C14.565 10.3353 14.5363 10.6169 14.5895 10.8888C14.6427 11.1608 14.7755 11.4108 14.971 11.6073C15.1664 11.8037 15.4158 11.9377 15.6875 11.9922C15.9591 12.0468 16.2409 12.0195 16.4971 11.9138C16.7532 11.8081 16.9722 11.6287 17.1263 11.3984C17.2804 11.1681 17.3627 10.8972 17.3627 10.6201C17.3634 10.2499 17.2171 9.89452 16.956 9.6321C16.6948 9.36967 16.3402 9.22162 15.97 9.22048V9.22048Z" fill="#F5455C"/>
</svg>
