<svg version="1.1" id="Layer_1" xmlns="http://www.w3.org/2000/svg" xmlns:xlink="http://www.w3.org/1999/xlink" x="0px" y="0px" viewBox="0 0 360 360" style="enable-background:new 0 0 360 360;" xml:space="preserve">
 <style type="text/css">
  .st0{fill:#FFFFFF;stroke:#000000;}
	.st1{fill:#00AE41;}
 </style>
 <title>
  Artboard
 </title>
 <desc>
  Created with Sketch.
 </desc>
 <g id="Page-1_1_">
  <g id="Artboard">
   <g id="SRbulb" transform="translate(2.000000, 1.000000)">
    <g id="Page-1">
     <g id="bulb">
      <rect id="Rectangle-path" x="96.1" y="53.7" class="st0" width="167.4" height="189.4">
      </rect>
      <path id="Shape" class="st1" d="M178.1,355.9c25.6,0.3,48.6-5.7,56.7-22.6c3-6.6,3-10.9,4.5-18.4c5.7-29.6,20.2-56.9,41.6-78.1
						c22.6-22,40.7-57.3,40.7-95c0-75.7-63-138.4-143.6-138.7l0,0C97.6,3.3,34.5,66.1,34.5,141.8c0.5,35.8,15.1,70,40.7,95
						c21.5,21.2,36,48.5,41.6,78.1c1.5,7.8,1.5,12.1,4.5,18.4C129.5,350.2,152.8,356.3,178.1,355.9L178.1,355.9z M239.6,194.9
						c0,20.2-18.1,39.2-62.1,39.2s-61.8-19-61.8-39.2v-8.1c0-3.9,1.5-5.7,5.4-5.7h17.8c4.2,0,5.4,1.8,5.4,5.7v6.9
						c0,11.8,12.4,17.2,33.2,17.2s33.2-5.4,33.2-17.2V185c0-7.8-6.6-12.1-17.2-15.7l-48.9-16.9c-12.1-4.2-25.3-16.6-25.3-32.9v-12.1
						c0-20.2,15.1-40.1,59.1-40.1s59.1,19.9,59.1,40.1v7.8c0,4.2-1.2,5.7-5.7,5.7h-16.9c-3.9,0-5.4-1.5-5.4-5.7v-7.8
						c0-11.8-10.9-17.2-31.1-17.2s-30.5,5.4-30.5,17.2v5.4c0,8.4,7.8,13,13.6,15.1l48.9,16.9c18.1,6.3,29.3,16.6,29.3,32
						L239.6,194.9L239.6,194.9z">
      </path>
     </g>
    </g>
   </g>
  </g>
 </g>
</svg>