<?xml version="1.0" encoding="utf-8"?>
<!-- Uploaded to: SVG Repo, www.svgrepo.com, Generator: SVG Repo Mixer Tools -->
<svg width="800px" height="800px" viewBox="0 0 48 48" xmlns="http://www.w3.org/2000/svg">
  <title>splunk</title>
  <g id="Layer_2" data-name="Layer 2">
    <g id="invisible_box" data-name="invisible box">
      <rect width="48" height="48" fill="none"/>
    </g>
    <g id="Q3_icons" data-name="Q3 icons">
      <path fill="#74A43D" d="M37.5,4h-27A6.5,6.5,0,0,0,4,10.5v27A6.5,6.5,0,0,0,10.5,44h27A6.5,6.5,0,0,0,44,37.5v-27A6.5,6.5,0,0,0,37.5,4Z"/>
      <path fill="#fff" d="M33.6,26.1c0,.1,0,.2-.2.3L14.7,35.8c-.1.1-.3-.1-.3-.2V30.8c0-.1,0-.2.1-.2l13.6-6.8L14.5,16.9c-.1,0-.1-.1-.1-.2V11.9c0-.1.2-.3.3-.2l18.7,9.4a.5.5,0,0,1,.2.4Z"/>
    </g>
  </g>
</svg>
