<svg width="256" height="256" viewBox="0 0 32 32" fill="none" xmlns="http://www.w3.org/2000/svg">
<rect width="32" height="32" rx="6" ry="6" fill="#006b63"/>
<g transform="translate(16 16) scale(0.8) translate(-16 -16)">
<path fill-rule="evenodd" clip-rule="evenodd" d="M20.1158 16.9298C21.1535 15.0981 21.683 13.4677 21.6632 12.2075C21.6389 10.6608 21.0232 9.5088 20.1166 8.74537C17.3867 6.45203 12.0107 7.67565 12.0838 12.2798C12.1105 14.017 12.9539 16.2654 15.1474 18.977C15.1474 18.977 16.3703 17.8821 16.6385 16.9C10.8152 8.98613 23.056 8.55489 16.9661 17.3297C16.9661 17.3297 16.2621 18.4749 15.3661 19.2421C13.4667 21.0326 11.747 21.5987 10.2476 21.3526C5.04152 20.4993 4.21105 12.7309 3.82552 8.11223H0.00304762L0 8.26613V9.12937C0.199619 18.2951 6.68571 31.0456 17.0514 21.0166C18.0777 19.988 18.6621 19.169 18.6621 19.169C19.1884 18.4507 19.6737 17.7034 20.1158 16.9305V16.9298ZM28.9242 12.9465C28.2255 18.3286 25.1078 22.8757 20.4069 20.372C20.3139 20.5001 20.2168 20.6251 20.1158 20.7469C19.6676 21.2759 19.1627 21.7541 18.6103 22.1732C18.597 22.1658 18.5829 22.16 18.5684 22.1557C19.0865 22.481 19.603 22.74 20.1158 22.9374C25.9215 25.1812 31.2175 19.633 31.728 12.6958L29.0004 12.5739C28.9664 12.6962 28.9409 12.8207 28.9242 12.9465" fill="#9be3d8"/>
</g>
</svg>
