<svg version="1.1" id="Layer_1" xmlns="http://www.w3.org/2000/svg" x="0" y="0" viewBox="0 0 48 48" xml:space="preserve">
  <style>
    .st0{fill:#393c44}.st1{fill:#fff}
  </style>
    <path class="st0" d="M-152.17-24.17H-56V72h-96.17z"/>
    <path class="st1" d="M-83.19 48h-41.79c-1.76 0-3.19-1.43-3.19-3.19V3.02c0-1.76 1.43-3.19 3.19-3.19h41.79c1.76 0 3.19 1.43 3.19 3.19v41.79c0 1.76-1.43 3.19-3.19 3.19z"/>
    <path class="st0" d="M-99.62 12.57v9.94c1.15-1.21 2.59-1.81 4.32-1.81 1.03 0 1.97.19 2.82.58.86.39 1.59.91 2.19 1.57.6.66 1.08 1.43 1.42 2.32.34.89.51 1.84.51 2.85 0 1.03-.18 1.99-.53 2.89-.35.9-.84 1.68-1.47 2.35-.63.67-1.37 1.19-2.23 1.58-.86.39-1.78.58-2.77.58-1.8 0-3.22-.66-4.27-1.97V35h-4.89V12.57h4.9zm6.16 15.54c0-.43-.08-.84-.24-1.23-.16-.39-.39-.72-.68-1.01-.29-.29-.62-.52-1-.69-.38-.17-.79-.26-1.24-.26-.43 0-.84.08-1.22.24-.38.16-.71.39-.99.68-.28.29-.5.63-.68 1.01-.17.39-.26.8-.26 1.23 0 .43.08.84.24 1.22.16.38.39.71.68.99.29.28.63.5 1.01.68.39.17.8.26 1.23.26.43 0 .84-.08 1.22-.24.38-.16.71-.39.99-.68.28-.29.5-.62.68-1 .17-.39.26-.79.26-1.2z"/>
    <path class="st0" d="M-114.76 12.57v9.94c1.15-1.21 2.59-1.81 4.32-1.81 1.03 0 1.97.19 2.82.58.86.39 1.59.91 2.19 1.57.6.66 1.08 1.43 1.42 2.32.34.89.51 1.84.51 2.85 0 1.03-.18 1.99-.53 2.89-.35.9-.84 1.68-1.47 2.35-.63.67-1.37 1.19-2.23 1.58-.86.39-1.78.58-2.77.58-1.8 0-3.22-.66-4.27-1.97V35h-4.89V12.57h4.9zm6.16 15.54c0-.43-.08-.84-.24-1.23-.16-.39-.39-.72-.68-1.01-.29-.29-.62-.52-1-.69-.38-.17-.79-.26-1.24-.26-.43 0-.84.08-1.22.24-.38.16-.71.39-.99.68-.28.29-.5.63-.68 1.01-.17.39-.26.8-.26 1.23 0 .43.08.84.24 1.22.16.38.39.71.68.99.29.28.63.5 1.01.68.39.17.8.26 1.23.26.43 0 .84-.08 1.22-.24.38-.16.71-.39.99-.68.28-.29.5-.62.68-1 .18-.39.26-.79.26-1.2z"/>
    <path d="M44.81 159H3.02c-1.76 0-3.19-1.43-3.19-3.19v-41.79c0-1.76 1.43-3.19 3.19-3.19h41.79c1.76 0 3.19 1.43 3.19 3.19v41.79c0 1.76-1.43 3.19-3.19 3.19z" fill="#4285f4"/>
    <path class="st1" d="M28.38 123.57v9.94c1.15-1.21 2.59-1.81 4.32-1.81 1.03 0 1.97.19 2.82.58.86.39 1.59.91 2.19 1.57.6.66 1.08 1.43 1.42 2.32.34.89.51 1.84.51 2.85 0 1.03-.18 1.99-.53 2.89-.35.9-.84 1.68-1.47 2.35-.63.67-1.37 1.19-2.23 1.58-.86.39-1.78.58-2.77.58-1.8 0-3.22-.66-4.27-1.97V146h-4.89v-22.43h4.9zm6.16 15.54c0-.43-.08-.84-.24-1.23-.16-.39-.39-.72-.68-1.01-.29-.29-.62-.52-1-.69-.38-.17-.79-.26-1.24-.26-.43 0-.84.08-1.22.24-.38.16-.71.39-.99.68-.28.29-.5.63-.68 1.01-.17.39-.26.8-.26 1.23 0 .43.08.84.24 1.22.16.38.39.71.68.99.29.28.63.5 1.01.68.39.17.8.26 1.23.26.43 0 .84-.08 1.22-.24.38-.16.71-.39.99-.68.28-.29.5-.62.68-1 .17-.39.26-.79.26-1.2z"/>
    <path class="st1" d="M13.24 123.57v9.94c1.15-1.21 2.59-1.81 4.32-1.81 1.03 0 1.97.19 2.82.58.86.39 1.59.91 2.19 1.57.6.66 1.08 1.43 1.42 2.32.34.89.51 1.84.51 2.85 0 1.03-.18 1.99-.53 2.89-.35.9-.84 1.68-1.47 2.35-.63.67-1.37 1.19-2.23 1.58-.86.39-1.78.58-2.77.58-1.8 0-3.22-.66-4.27-1.97V146H8.35v-22.43h4.89zm6.16 15.54c0-.43-.08-.84-.24-1.23-.16-.39-.39-.72-.68-1.01-.29-.29-.62-.52-1-.69-.38-.17-.79-.26-1.24-.26-.43 0-.84.08-1.22.24-.38.16-.71.39-.99.68-.28.29-.5.63-.68 1.01-.17.39-.26.8-.26 1.23 0 .43.08.84.24 1.22.16.38.39.71.68.99.29.28.63.5 1.01.68.39.17.8.26 1.23.26.43 0 .84-.08 1.22-.24.38-.16.71-.39.99-.68.28-.29.5-.62.68-1 .18-.39.26-.79.26-1.2z"/>
    <g>
    <path class="st0" d="M44 48H4c-2.21 0-4-1.79-4-4V4c0-2.21 1.79-4 4-4h40c2.21 0 4 1.79 4 4v40c0 2.21-1.79 4-4 4z"/>
        <path class="st1" d="M28.48 12v10.44c1.18-1.27 2.65-1.9 4.42-1.9 1.05 0 2.01.2 2.89.61.87.41 1.62.96 2.24 1.65.62.69 1.1 1.5 1.45 2.44.35.94.52 1.93.52 2.99 0 1.08-.18 2.09-.54 3.04-.36.95-.86 1.77-1.51 2.47-.64.7-1.4 1.25-2.28 1.66-.87.4-1.81.6-2.83.6-1.84 0-3.3-.69-4.37-2.07v1.62h-5V12h5.01zm6.3 16.31c0-.45-.08-.88-.25-1.29-.17-.41-.4-.76-.69-1.06-.3-.3-.64-.54-1.02-.72-.39-.18-.81-.27-1.27-.27-.44 0-.86.09-1.24.26-.39.17-.72.41-1.01.71-.29.3-.52.66-.69 1.06-.18.41-.26.84-.26 1.29s.08.88.25 1.28c.17.4.4.74.69 1.04.29.29.64.53 1.04.71.4.18.82.27 1.26.27.44 0 .86-.09 1.24-.26.39-.17.72-.41 1.01-.71.29-.3.52-.65.69-1.05.16-.41.25-.82.25-1.26z"/>
        <path class="st1" d="M13 12v10.44c1.18-1.27 2.65-1.9 4.42-1.9 1.05 0 2.01.2 2.89.61.87.41 1.62.96 2.24 1.65.62.69 1.1 1.5 1.45 2.44.35.94.52 1.93.52 2.99 0 1.08-.18 2.09-.54 3.04-.36.95-.86 1.77-1.51 2.47-.64.7-1.4 1.25-2.28 1.66-.87.4-1.81.6-2.82.6-1.84 0-3.3-.69-4.37-2.07v1.62H8V12h5zm6.3 16.31c0-.45-.08-.88-.25-1.29-.17-.41-.4-.76-.69-1.06-.3-.3-.64-.54-1.02-.72-.39-.18-.81-.27-1.27-.27-.44 0-.86.09-1.24.26-.39.17-.72.41-1.01.71-.29.3-.52.66-.69 1.06-.18.41-.26.84-.26 1.29s.08.88.25 1.28c.17.4.4.74.69 1.04.29.29.64.53 1.04.71.4.18.82.27 1.26.27.44 0 .86-.09 1.24-.26.39-.17.72-.41 1.01-.71.29-.3.52-.65.69-1.05.16-.41.25-.82.25-1.26z"/>
  </g>
</svg>
