<svg xmlns="http://www.w3.org/2000/svg" viewBox="0 0 96 132">
  <path
    fill="#FFA000"
    d="M0 111.72 16.13 8.49c.2-1.27 1.18-2.27 2.45-2.48 1.26-.21 2.52.4 3.13 1.53l16.68 31.12 6.65-12.66c.52-.98 1.53-1.59 2.64-1.59 1.1 0 2.12.61 2.64 1.59L95.34 111.72H0z"
  />
  <path
    fill="#F57C00"
    d="M55.74 71.51 38.39 38.65 0 111.72z"
  />
  <path
    fill="#FFCA28"
    d="M95.34 111.72l-12.36-76.46c-.19-1.1-.97-2-2.03-2.34-1.06-.34-2.22-.06-3.01.73L0 111.72l43.12 24.18c2.71 1.51 6.01 1.51 8.71 0l43.5-24.18z"
  />
  <path
    fill="#FFF"
    fill-opacity="0.2"
    d="M82.98 35.26c-.19-1.1-.97-2-2.03-2.34-1.06-.34-2.22-.06-3.01.73L62.47 49.16 50.31 26c-.52-.98-1.53-1.59-2.64-1.59-1.1 0-2.12.61-2.64 1.59l-6.65 12.66L21.7 7.54c-.6-1.13-1.86-1.75-3.12-1.53-1.26.22-2.24 1.22-2.43 2.48L0 111.72h-.05l.05.06.42.21 77.49-77.58c.79-.79 1.95-1.08 3.02-.74 1.06.34 1.85 1.24 2.03 2.35l12.25 75.77.12-.07-12.36-76.46zM.15 111.58 16.14 9.23c.19-1.27 1.18-2.27 2.44-2.48 1.26-.22 2.52.4 3.13 1.53l16.68 31.12 6.65-12.66c.52-.98 1.53-1.59 2.64-1.59 1.1 0 2.12.61 2.64 1.59l11.92 22.66-62.09 62.18z"
  />
  <path
    fill="#A52714"
    opacity="0.2"
    d="M51.84 135.17c-2.71 1.51-6.01 1.51-8.71 0L.1 111.06l-.1.66 43.12 24.18c2.71 1.51 6.01 1.51 8.71 0l43.5-24.18-.11-.69-43.38 24.14z"
  />
</svg>
