<svg xmlns="http://www.w3.org/2000/svg" viewBox="0 0 48 66">
  <defs>
    <linearGradient id="sheetGradient" x1="50%" y1="8.6%" x2="50%" y2="100%">
      <stop stop-color="#263238" stop-opacity="0.2" offset="0%"/>
      <stop stop-color="#263238" stop-opacity="0.02" offset="100%"/>
    </linearGradient>
  </defs>
  <path d="M29.5,0 L4.4,0 C2,0 0,2 0,4.4 L0,60.6 C0,63.1 2,65.1 4.4,65.1 L42.9,65.1 C45.3,65.1 47.3,63.1 47.3,60.6 L47.3,17.8 L29.5,0 Z" fill="#0F9D58"/>
  <path d="M11.8,31.8 L11.8,53.3 L35.5,53.3 L35.5,31.8 L11.8,31.8 Z M22.2,50.3 L14.8,50.3 L14.8,46.6 L22.2,46.6 L22.2,50.3 Z M22.2,44.4 L14.8,44.4 L14.8,40.7 L22.2,40.7 L22.2,44.4 Z M22.2,38.5 L14.8,38.5 L14.8,34.8 L22.2,34.8 L22.2,38.5 Z M32.5,50.3 L25.1,50.3 L25.1,46.6 L32.5,46.6 L32.5,50.3 Z M32.5,44.4 L25.1,44.4 L25.1,40.7 L32.5,40.7 L32.5,44.4 Z M32.5,38.5 L25.1,38.5 L25.1,34.8 L32.5,34.8 L32.5,38.5 Z" fill="#F1F1F1"/>
  <polygon fill="url(#sheetGradient)" points="30.9 16.5 47.3 33 47.3 17.8"/>
  <path d="M29.6,0 L29.6,13.3 C29.6,15.8 31.6,17.8 34,17.8 L47.3,17.8 L29.6,0 Z" fill="#87CEAC"/>
  <path d="M4.4,0 C2,0 0,2 0,4.4 L0,4.8 C0,2.4 2,0.4 4.4,0.4 L29.6,0.4 L29.6,0 L4.4,0 Z" fill="#FFFFFF" fill-opacity="0.2"/>
  <path d="M42.9,64.7 L4.4,64.7 C2,64.7 0,62.7 0,60.3 L0,60.6 C0,63.1 2,65.1 4.4,65.1 L42.9,65.1 C45.3,65.1 47.3,63.1 47.3,60.6 L47.3,60.3 C47.3,62.7 45.3,64.7 42.9,64.7 Z" fill="#263238" fill-opacity="0.2"/>
  <path d="M34,17.8 C31.5,17.8 29.6,15.8 29.6,13.3 L29.6,13.7 C29.6,16.1 31.5,18.1 34,18.1 L47.3,18.1 L47.3,17.8 L34,17.8 Z" fill="#263238" fill-opacity="0.1"/>
</svg>
