<svg width="52" height="24" viewBox="0 0 52 24" fill="none" xmlns="http://www.w3.org/2000/svg">
<rect width="24" height="24" rx="12" fill="#1D1D1D"/>
<mask id="mask0_3955_13630" style="mask-type:luminance" maskUnits="userSpaceOnUse" x="5" y="5" width="15" height="14">
<path d="M5 5H19.0031V19.0031H5V5Z" fill="white"/>
</mask>
<g mask="url(#mask0_3955_13630)">
<path d="M7.94238 13.8462C7.94238 14.6561 7.28113 15.3174 6.47119 15.3174C6.08129 15.3165 5.70762 15.1612 5.43191 14.8855C5.15621 14.6098 5.00091 14.2361 5 13.8462C5 13.0363 5.66126 12.375 6.47119 12.375H7.94238V13.8462ZM8.68317 13.8462C8.68317 13.0363 9.34443 12.375 10.1544 12.375C10.9643 12.375 11.6256 13.0363 11.6256 13.8462V17.5294C11.6256 18.3393 10.9643 19.0006 10.1544 19.0006C9.76446 18.9996 9.39078 18.8443 9.11508 18.5686C8.83937 18.2929 8.68408 17.9193 8.68317 17.5294V13.8462Z" fill="#E01E5A"/>
<path d="M10.1544 7.94238C9.76446 7.94147 9.39078 7.78618 9.11508 7.51047C8.83937 7.23477 8.68408 6.8611 8.68317 6.47119C8.68317 5.66126 9.34443 5 10.1544 5C10.9643 5 11.6256 5.66126 11.6256 6.47119V7.94238H10.1544ZM10.1544 8.68317C10.9643 8.68317 11.6256 9.34443 11.6256 10.1544C11.6256 10.9643 10.9643 11.6256 10.1544 11.6256H6.47119C6.08129 11.6246 5.70762 11.4693 5.43191 11.1936C5.15621 10.9179 5.00091 10.5443 5 10.1544C5 9.34443 5.66126 8.68317 6.47119 8.68317H10.1544Z" fill="#36C5F0"/>
<path d="M16.0617 10.1544C16.0617 9.34443 16.723 8.68317 17.532 8.68317C18.342 8.68317 19.0032 9.34443 19.0032 10.1544C19.0032 10.9643 18.342 11.6256 17.532 11.6256H16.0617V10.1544ZM15.3201 10.1544C15.3201 10.9643 14.6588 11.6256 13.8489 11.6256C13.459 11.6246 13.0853 11.4693 12.8096 11.1936C12.5339 10.9179 12.3786 10.5443 12.3777 10.1544V6.47119C12.3777 5.66126 13.0389 5 13.8489 5C14.6588 5 15.3201 5.66126 15.3201 6.47119V10.1544Z" fill="#2EB67D"/>
<path d="M13.8489 16.0582C14.6588 16.0582 15.3201 16.7194 15.3201 17.5294C15.3201 18.3393 14.6588 19.0006 13.8489 19.0006C13.459 18.9996 13.0853 18.8443 12.8096 18.5686C12.5339 18.2929 12.3786 17.9193 12.3777 17.5294V16.0582H13.8489ZM13.8489 15.3174C13.459 15.3165 13.0853 15.1612 12.8096 14.8855C12.5339 14.6098 12.3786 14.2361 12.3777 13.8462C12.3777 13.0363 13.0389 12.375 13.8489 12.375H17.532C18.342 12.375 19.0032 13.0363 19.0032 13.8462C19.0032 14.6561 18.342 15.3174 17.532 15.3174H13.8489Z" fill="#ECB22E"/>
</g>
<rect x="14" width="24" height="24" rx="12" fill="#1D1D1D"/>
<path d="M23.2598 11.4829C23.0551 11.2578 22.7481 11.2782 22.6048 11.5444L19.2887 18.1766C19.1659 18.4427 19.3501 18.7498 19.6367 18.7498H24.2424C24.3857 18.7498 24.529 18.6679 24.5904 18.5246C25.5934 16.4776 24.9998 13.3457 23.2598 11.4829Z" fill="url(#paint0_linear_3955_13630)"/>
<path d="M25.6755 5.46494C23.8332 8.39215 23.9561 11.6469 25.1638 14.0828C26.392 16.5188 27.3132 18.402 27.3951 18.5248C27.4565 18.6681 27.5997 18.75 27.743 18.75H32.3488C32.6354 18.75 32.8401 18.4429 32.6968 18.1768C32.6968 18.1768 26.4944 5.77199 26.3306 5.46494C26.2078 5.17835 25.8598 5.17835 25.6755 5.46494Z" fill="#2684FF"/>
<rect x="28" width="24" height="24" rx="12" fill="#1D1D1D"/>
<g clip-path="url(#clip0_3955_13630)">
<mask id="mask1_3955_13630" style="mask-type:luminance" maskUnits="userSpaceOnUse" x="33" y="3" width="14" height="18">
<path d="M46.8476 3.85156H33.1516V20.1426H46.8476V3.85156Z" fill="white"/>
</mask>
<g mask="url(#mask1_3955_13630)">
<path fill-rule="evenodd" clip-rule="evenodd" d="M43.628 8.05151V9.72465H43.6254C45.1578 9.95877 46.3821 11.1091 46.6961 12.6101C47.0101 14.111 46.348 15.6469 45.0352 16.4626C43.7224 17.2784 42.035 17.2024 40.8026 16.272L39.4247 17.634C39.4604 17.7445 39.4794 17.8596 39.481 17.9756C39.481 18.6356 38.9397 19.1707 38.2719 19.1707C37.6041 19.1707 37.0628 18.6356 37.0628 17.9756C37.0628 17.3155 37.6041 16.7804 38.2719 16.7804C38.3892 16.7821 38.5057 16.8009 38.6175 16.8361L40.0104 15.4594C39.1322 14.2244 39.1095 12.5838 39.9532 11.3256L35.3762 7.8038C34.7621 8.15222 33.9845 8.02366 33.5185 7.49667C33.0525 6.96968 33.0278 6.19083 33.4593 5.63594C33.8909 5.08105 34.6587 4.90445 35.2938 5.21402C35.9288 5.5236 36.2545 6.23325 36.0718 6.90944L40.727 10.493C41.2348 10.0893 41.8416 9.82548 42.4857 9.72812V8.05151C42.0284 7.84039 41.7352 7.38749 41.733 6.88858V6.84947C41.7349 6.13839 42.3176 5.56242 43.0371 5.56051H43.0767C43.796 5.56242 44.3788 6.13839 44.3807 6.84947V6.88858C44.3785 7.38749 44.0853 7.84039 43.628 8.05151ZM41.1526 13.3494C41.1508 14.3896 42.0022 15.2344 43.0546 15.2369L43.059 15.2378C44.1119 15.2378 44.9654 14.3941 44.9654 13.3534C44.9659 12.3131 44.1135 11.4693 43.0611 11.4682C42.0087 11.4671 41.1544 12.3091 41.1526 13.3494Z" fill="#FF4800"/>
</g>
</g>
<defs>
<linearGradient id="paint0_linear_3955_13630" x1="25.0694" y1="12.5089" x2="21.5745" y2="18.5622" gradientUnits="userSpaceOnUse">
<stop stop-color="#0052CC"/>
<stop offset="0.9228" stop-color="#2684FF"/>
</linearGradient>
<clipPath id="clip0_3955_13630">
<rect width="13.7847" height="16.291" fill="white" transform="translate(33.1077 3.85156)"/>
</clipPath>
</defs>
</svg>
