<svg width="38" height="24" viewBox="0 0 38 24" fill="none" xmlns="http://www.w3.org/2000/svg">
<rect width="24" height="24" rx="12" fill="#1D1D1D"/>
<mask id="mask0_1_29" style="mask-type:luminance" maskUnits="userSpaceOnUse" x="4" y="4" width="16" height="16">
<path d="M4.99805 4.99805H19.0012V19.0012H4.99805V4.99805Z" fill="white"/>
</mask>
<g mask="url(#mask0_1_29)">
<path d="M7.94043 13.8436C7.94043 14.6535 7.27917 15.3148 6.46924 15.3148C6.07934 15.3139 5.70566 15.1586 5.42996 14.8829C5.15426 14.6071 4.99896 14.2335 4.99805 13.8436C4.99805 13.0336 5.65931 12.3724 6.46924 12.3724H7.94043V13.8436ZM8.68122 13.8436C8.68122 13.0336 9.34247 12.3724 10.1524 12.3724C10.9623 12.3724 11.6236 13.0336 11.6236 13.8436V17.5267C11.6236 18.3367 10.9623 18.9979 10.1524 18.9979C9.7625 18.997 9.38883 18.8417 9.11313 18.566C8.83742 18.2903 8.68213 17.9166 8.68122 17.5267V13.8436Z" fill="#E01E5A"/>
<path d="M10.1524 7.94043C9.7625 7.93952 9.38883 7.78423 9.11313 7.50852C8.83742 7.23282 8.68213 6.85915 8.68122 6.46924C8.68122 5.65931 9.34247 4.99805 10.1524 4.99805C10.9623 4.99805 11.6236 5.65931 11.6236 6.46924V7.94043H10.1524ZM10.1524 8.68122C10.9623 8.68122 11.6236 9.34247 11.6236 10.1524C11.6236 10.9623 10.9623 11.6236 10.1524 11.6236H6.46924C6.07934 11.6227 5.70566 11.4674 5.42996 11.1917C5.15426 10.916 4.99896 10.5423 4.99805 10.1524C4.99805 9.34247 5.65931 8.68122 6.46924 8.68122H10.1524Z" fill="#36C5F0"/>
<path d="M16.0598 10.1524C16.0598 9.34247 16.721 8.68122 17.5301 8.68122C18.34 8.68122 19.0013 9.34247 19.0013 10.1524C19.0013 10.9623 18.34 11.6236 17.5301 11.6236H16.0598V10.1524ZM15.3181 10.1524C15.3181 10.9623 14.6569 11.6236 13.8469 11.6236C13.457 11.6227 13.0834 11.4674 12.8077 11.1917C12.532 10.916 12.3767 10.5423 12.3758 10.1524V6.46924C12.3758 5.65931 13.037 4.99805 13.8469 4.99805C14.6569 4.99805 15.3181 5.65931 15.3181 6.46924V10.1524Z" fill="#2EB67D"/>
<path d="M13.8469 16.0555C14.6569 16.0555 15.3181 16.7168 15.3181 17.5267C15.3181 18.3367 14.6569 18.9979 13.8469 18.9979C13.457 18.997 13.0834 18.8417 12.8077 18.566C12.532 18.2903 12.3767 17.9166 12.3758 17.5267V16.0555H13.8469ZM13.8469 15.3148C13.457 15.3139 13.0834 15.1586 12.8077 14.8829C12.532 14.6071 12.3767 14.2335 12.3758 13.8436C12.3758 13.0336 13.037 12.3724 13.8469 12.3724H17.5301C18.34 12.3724 19.0013 13.0336 19.0013 13.8436C19.0013 14.6535 18.34 15.3148 17.5301 15.3148H13.8469Z" fill="#ECB22E"/>
</g>
<rect x="14" width="24" height="24" rx="12" fill="#1D1D1D"/>
<path d="M23.2598 11.4831C23.0551 11.2579 22.7481 11.2784 22.6048 11.5445L19.2887 18.1768C19.1659 18.4429 19.3501 18.75 19.6367 18.75H24.2424C24.3857 18.75 24.529 18.6681 24.5904 18.5248C25.5934 16.4778 24.9998 13.3459 23.2598 11.4831Z" fill="url(#paint0_linear_1_29)"/>
<path d="M25.6756 5.46494C23.8333 8.39215 23.9562 11.6469 25.1638 14.0828C26.3921 16.5188 27.3132 18.402 27.3951 18.5248C27.4565 18.6681 27.5998 18.75 27.7431 18.75H32.3489C32.6354 18.75 32.8401 18.4429 32.6968 18.1768C32.6968 18.1768 26.4944 5.77199 26.3306 5.46494C26.2078 5.17835 25.8598 5.17835 25.6756 5.46494Z" fill="#2684FF"/>
<defs>
<linearGradient id="paint0_linear_1_29" x1="25.0694" y1="12.5091" x2="21.5745" y2="18.5624" gradientUnits="userSpaceOnUse">
<stop stop-color="#0052CC"/>
<stop offset="0.9228" stop-color="#2684FF"/>
</linearGradient>
</defs>
</svg>
