<svg width="16" height="17" viewBox="0 0 16 17" fill="none" xmlns="http://www.w3.org/2000/svg">
<path d="M0.360872 11.5905L4.90819 16.139C5.10754 16.3384 5.43058 16.3384 5.62993 16.139L7.61005 14.1583C7.78825 13.9801 7.87247 13.7282 7.83748 13.4783L7.30573 9.71929C7.26667 9.44582 7.05186 9.23095 6.77886 9.19228L3.02083 8.6604C2.77143 8.62499 2.5196 8.70923 2.34099 8.88788L0.360872 10.8685C0.161518 11.0679 0.161518 11.3911 0.360872 11.5905Z" fill="url(#paint0_linear_1216_26668)"/>
<path d="M11.0826 16.139L15.6299 11.5905C15.8292 11.3911 15.8292 11.068 15.6299 10.8686L13.6498 8.88794C13.4716 8.70969 13.2197 8.62545 12.9699 8.66045L9.21188 9.19234C8.93847 9.23141 8.72366 9.44628 8.68501 9.71934L8.15326 13.4784C8.11787 13.7278 8.20208 13.9797 8.38069 14.1584L10.3608 16.139C10.5602 16.3384 10.8832 16.3384 11.0826 16.139Z" fill="url(#paint1_linear_1216_26668)"/>
<path d="M15.6391 5.40954L11.0918 0.861023C10.8925 0.661616 10.5694 0.661614 10.3701 0.861021L8.38995 2.84166C8.21175 3.01991 8.12753 3.27181 8.16252 3.52168L8.69427 7.28071C8.73333 7.55418 8.94814 7.76905 9.22114 7.80772L12.9792 8.3396C13.2286 8.37501 13.4804 8.29077 13.659 8.11212L15.6391 6.13148C15.8385 5.93207 15.8385 5.60895 15.6391 5.40954Z" fill="url(#paint2_linear_1216_26668)"/>
<path d="M4.91745 0.860967L0.370132 5.40948C0.170778 5.60889 0.170776 5.93201 0.370131 6.13142L2.35025 8.11206C2.52845 8.29031 2.78028 8.37455 3.03009 8.33955L6.78812 7.80766C7.06152 7.76859 7.27634 7.55372 7.31499 7.28066L7.84674 3.52163C7.88213 3.27217 7.79792 3.02026 7.61931 2.84161L5.63919 0.860967C5.43984 0.66156 5.1168 0.66156 4.91745 0.860967Z" fill="url(#paint3_linear_1216_26668)"/>
<defs>
<linearGradient id="paint0_linear_1216_26668" x1="4.94623" y1="15.6582" x2="7.43064" y2="9.91942" gradientUnits="userSpaceOnUse">
<stop stop-color="#6E56FF"/>
<stop offset="1" stop-color="#9F8FFF"/>
</linearGradient>
<linearGradient id="paint1_linear_1216_26668" x1="15.1492" y1="11.5525" x2="9.411" y2="9.06961" gradientUnits="userSpaceOnUse">
<stop stop-color="#6E56FF"/>
<stop offset="1" stop-color="#9F8FFF"/>
</linearGradient>
<linearGradient id="paint2_linear_1216_26668" x1="11.0538" y1="1.34184" x2="8.56936" y2="7.08058" gradientUnits="userSpaceOnUse">
<stop stop-color="#6E56FF"/>
<stop offset="1" stop-color="#9F8FFF"/>
</linearGradient>
<linearGradient id="paint3_linear_1216_26668" x1="0.850819" y1="5.44754" x2="6.589" y2="7.93039" gradientUnits="userSpaceOnUse">
<stop stop-color="#6E56FF"/>
<stop offset="1" stop-color="#9F8FFF"/>
</linearGradient>
</defs>
</svg>
