<?xml version="1.0" encoding="utf-8"?>
<!-- Generator: Adobe Illustrator 24.1.2, SVG Export Plug-In . SVG Version: 6.00 Build 0)  -->
<svg version="1.1" id="Layer_1" xmlns="http://www.w3.org/2000/svg" xmlns:xlink="http://www.w3.org/1999/xlink" x="0px" y="0px"
	 viewBox="0 0 48 48" style="enable-background:new 0 0 48 48;" xml:space="preserve">
<style type="text/css">
	.st0{fill:#000000;}
	.st1{fill:#FFFFFF;}
	.st2{fill:#4285F4;}
</style>
<rect x="-152.17" y="-24.17" class="st0" width="96.17" height="96.17"/>
<path class="st1" d="M-83.19,48h-41.79c-1.76,0-3.19-1.43-3.19-3.19V3.02c0-1.76,1.43-3.19,3.19-3.19h41.79
	c1.76,0,3.19,1.43,3.19,3.19v41.79C-80,46.57-81.43,48-83.19,48z"/>
<g>
	<g>
		<path class="st0" d="M-99.62,12.57v9.94c1.15-1.21,2.59-1.81,4.32-1.81c1.03,0,1.97,0.19,2.82,0.58c0.86,0.39,1.59,0.91,2.19,1.57
			c0.6,0.66,1.08,1.43,1.42,2.32c0.34,0.89,0.51,1.84,0.51,2.85c0,1.03-0.18,1.99-0.53,2.89c-0.35,0.9-0.84,1.68-1.47,2.35
			c-0.63,0.67-1.37,1.19-2.23,1.58c-0.86,0.39-1.78,0.58-2.77,0.58c-1.8,0-3.22-0.66-4.27-1.97V35h-4.89V12.57H-99.62z
			 M-93.46,28.11c0-0.43-0.08-0.84-0.24-1.23c-0.16-0.39-0.39-0.72-0.68-1.01c-0.29-0.29-0.62-0.52-1-0.69
			c-0.38-0.17-0.79-0.26-1.24-0.26c-0.43,0-0.84,0.08-1.22,0.24c-0.38,0.16-0.71,0.39-0.99,0.68c-0.28,0.29-0.5,0.63-0.68,1.01
			c-0.17,0.39-0.26,0.8-0.26,1.23c0,0.43,0.08,0.84,0.24,1.22c0.16,0.38,0.39,0.71,0.68,0.99c0.29,0.28,0.63,0.5,1.01,0.68
			c0.39,0.17,0.8,0.26,1.23,0.26c0.43,0,0.84-0.08,1.22-0.24c0.38-0.16,0.71-0.39,0.99-0.68c0.28-0.29,0.5-0.62,0.68-1
			C-93.55,28.92-93.46,28.52-93.46,28.11z"/>
	</g>
	<g>
		<path class="st0" d="M-114.76,12.57v9.94c1.15-1.21,2.59-1.81,4.32-1.81c1.03,0,1.97,0.19,2.82,0.58
			c0.86,0.39,1.59,0.91,2.19,1.57c0.6,0.66,1.08,1.43,1.42,2.32c0.34,0.89,0.51,1.84,0.51,2.85c0,1.03-0.18,1.99-0.53,2.89
			c-0.35,0.9-0.84,1.68-1.47,2.35c-0.63,0.67-1.37,1.19-2.23,1.58c-0.86,0.39-1.78,0.58-2.77,0.58c-1.8,0-3.22-0.66-4.27-1.97V35
			h-4.89V12.57H-114.76z M-108.6,28.11c0-0.43-0.08-0.84-0.24-1.23c-0.16-0.39-0.39-0.72-0.68-1.01c-0.29-0.29-0.62-0.52-1-0.69
			c-0.38-0.17-0.79-0.26-1.24-0.26c-0.43,0-0.84,0.08-1.22,0.24c-0.38,0.16-0.71,0.39-0.99,0.68c-0.28,0.29-0.5,0.63-0.68,1.01
			c-0.17,0.39-0.26,0.8-0.26,1.23c0,0.43,0.08,0.84,0.24,1.22c0.16,0.38,0.39,0.71,0.68,0.99c0.29,0.28,0.63,0.5,1.01,0.68
			c0.39,0.17,0.8,0.26,1.23,0.26c0.43,0,0.84-0.08,1.22-0.24c0.38-0.16,0.71-0.39,0.99-0.68c0.28-0.29,0.5-0.62,0.68-1
			C-108.68,28.92-108.6,28.52-108.6,28.11z"/>
	</g>
</g>
<path class="st2" d="M44.81,159H3.02c-1.76,0-3.19-1.43-3.19-3.19v-41.79c0-1.76,1.43-3.19,3.19-3.19h41.79
	c1.76,0,3.19,1.43,3.19,3.19v41.79C48,157.57,46.57,159,44.81,159z"/>
<g>
	<g>
		<path class="st1" d="M28.38,123.57v9.94c1.15-1.21,2.59-1.81,4.32-1.81c1.03,0,1.97,0.19,2.82,0.58c0.86,0.39,1.59,0.91,2.19,1.57
			c0.6,0.66,1.08,1.43,1.42,2.32c0.34,0.89,0.51,1.84,0.51,2.85c0,1.03-0.18,1.99-0.53,2.89c-0.35,0.9-0.84,1.68-1.47,2.35
			c-0.63,0.67-1.37,1.19-2.23,1.58c-0.86,0.39-1.78,0.58-2.77,0.58c-1.8,0-3.22-0.66-4.27-1.97V146h-4.89v-22.43H28.38z
			 M34.54,139.11c0-0.43-0.08-0.84-0.24-1.23c-0.16-0.39-0.39-0.72-0.68-1.01c-0.29-0.29-0.62-0.52-1-0.69
			c-0.38-0.17-0.79-0.26-1.24-0.26c-0.43,0-0.84,0.08-1.22,0.24c-0.38,0.16-0.71,0.39-0.99,0.68c-0.28,0.29-0.5,0.63-0.68,1.01
			c-0.17,0.39-0.26,0.8-0.26,1.23c0,0.43,0.08,0.84,0.24,1.22c0.16,0.38,0.39,0.71,0.68,0.99c0.29,0.28,0.63,0.5,1.01,0.68
			c0.39,0.17,0.8,0.26,1.23,0.26c0.43,0,0.84-0.08,1.22-0.24c0.38-0.16,0.71-0.39,0.99-0.68c0.28-0.29,0.5-0.62,0.68-1
			C34.45,139.92,34.54,139.52,34.54,139.11z"/>
	</g>
	<g>
		<path class="st1" d="M13.24,123.57v9.94c1.15-1.21,2.59-1.81,4.32-1.81c1.03,0,1.97,0.19,2.82,0.58c0.86,0.39,1.59,0.91,2.19,1.57
			c0.6,0.66,1.08,1.43,1.42,2.32c0.34,0.89,0.51,1.84,0.51,2.85c0,1.03-0.18,1.99-0.53,2.89c-0.35,0.9-0.84,1.68-1.47,2.35
			c-0.63,0.67-1.37,1.19-2.23,1.58c-0.86,0.39-1.78,0.58-2.77,0.58c-1.8,0-3.22-0.66-4.27-1.97V146H8.35v-22.43H13.24z M19.4,139.11
			c0-0.43-0.08-0.84-0.24-1.23c-0.16-0.39-0.39-0.72-0.68-1.01c-0.29-0.29-0.62-0.52-1-0.69c-0.38-0.17-0.79-0.26-1.24-0.26
			c-0.43,0-0.84,0.08-1.22,0.24c-0.38,0.16-0.71,0.39-0.99,0.68c-0.28,0.29-0.5,0.63-0.68,1.01c-0.17,0.39-0.26,0.8-0.26,1.23
			c0,0.43,0.08,0.84,0.24,1.22c0.16,0.38,0.39,0.71,0.68,0.99c0.29,0.28,0.63,0.5,1.01,0.68c0.39,0.17,0.8,0.26,1.23,0.26
			c0.43,0,0.84-0.08,1.22-0.24c0.38-0.16,0.71-0.39,0.99-0.68c0.28-0.29,0.5-0.62,0.68-1C19.32,139.92,19.4,139.52,19.4,139.11z"/>
	</g>
</g>
<g>
	<path class="st0" d="M44,48H4c-2.21,0-4-1.79-4-4V4c0-2.21,1.79-4,4-4h40c2.21,0,4,1.79,4,4v40C48,46.21,46.21,48,44,48z"/>
	<g>
		<path class="st1" d="M28.48,12v10.44c1.18-1.27,2.65-1.9,4.42-1.9c1.05,0,2.01,0.2,2.89,0.61c0.87,0.41,1.62,0.96,2.24,1.65
			c0.62,0.69,1.1,1.5,1.45,2.44c0.35,0.94,0.52,1.93,0.52,2.99c0,1.08-0.18,2.09-0.54,3.04c-0.36,0.95-0.86,1.77-1.51,2.47
			c-0.64,0.7-1.4,1.25-2.28,1.66C34.8,35.8,33.86,36,32.84,36c-1.84,0-3.3-0.69-4.37-2.07v1.62h-5V12H28.48z M34.78,28.31
			c0-0.45-0.08-0.88-0.25-1.29c-0.17-0.41-0.4-0.76-0.69-1.06c-0.3-0.3-0.64-0.54-1.02-0.72c-0.39-0.18-0.81-0.27-1.27-0.27
			c-0.44,0-0.86,0.09-1.24,0.26c-0.39,0.17-0.72,0.41-1.01,0.71c-0.29,0.3-0.52,0.66-0.69,1.06c-0.18,0.41-0.26,0.84-0.26,1.29
			s0.08,0.88,0.25,1.28c0.17,0.4,0.4,0.74,0.69,1.04c0.29,0.29,0.64,0.53,1.04,0.71c0.4,0.18,0.82,0.27,1.26,0.27
			c0.44,0,0.86-0.09,1.24-0.26c0.39-0.17,0.72-0.41,1.01-0.71c0.29-0.3,0.52-0.65,0.69-1.05C34.69,29.16,34.78,28.75,34.78,28.31z"
			/>
	</g>
	<g>
		<path class="st1" d="M13,12v10.44c1.18-1.27,2.65-1.9,4.42-1.9c1.05,0,2.01,0.2,2.89,0.61c0.87,0.41,1.62,0.96,2.24,1.65
			c0.62,0.69,1.1,1.5,1.45,2.44c0.35,0.94,0.52,1.93,0.52,2.99c0,1.08-0.18,2.09-0.54,3.04c-0.36,0.95-0.86,1.77-1.51,2.47
			c-0.64,0.7-1.4,1.25-2.28,1.66C19.32,35.8,18.38,36,17.37,36c-1.84,0-3.3-0.69-4.37-2.07v1.62H8V12H13z M19.3,28.31
			c0-0.45-0.08-0.88-0.25-1.29c-0.17-0.41-0.4-0.76-0.69-1.06c-0.3-0.3-0.64-0.54-1.02-0.72c-0.39-0.18-0.81-0.27-1.27-0.27
			c-0.44,0-0.86,0.09-1.24,0.26c-0.39,0.17-0.72,0.41-1.01,0.71c-0.29,0.3-0.52,0.66-0.69,1.06c-0.18,0.41-0.26,0.84-0.26,1.29
			s0.08,0.88,0.25,1.28c0.17,0.4,0.4,0.74,0.69,1.04c0.29,0.29,0.64,0.53,1.04,0.71c0.4,0.18,0.82,0.27,1.26,0.27
			c0.44,0,0.86-0.09,1.24-0.26c0.39-0.17,0.72-0.41,1.01-0.71c0.29-0.3,0.52-0.65,0.69-1.05C19.21,29.16,19.3,28.75,19.3,28.31z"/>
	</g>
</g>
</svg>
