<?xml version="1.0" encoding="utf-8"?>
<!-- Generator: Adobe Illustrator 26.0.1, SVG Export Plug-In . SVG Version: 6.00 Build 0)  -->
<svg version="1.1" id="Layer_1" xmlns="http://www.w3.org/2000/svg" xmlns:xlink="http://www.w3.org/1999/xlink" x="0px" y="0px"
	 viewBox="0 0 300 300" style="enable-background:new 0 0 300 300;" xml:space="preserve">
<style type="text/css">
	.st0{fill:url(#Path_1317_00000103227440483474435190000016933188118935327121_);}
	.st1{fill:url(#Path_1318_00000101104841355089154840000006956526578009727927_);}
	.st2{fill:url(#Path_1319_00000075161440626185692110000014996044328070588571_);}
	.st3{fill:#C1CAE8;}
	.st4{fill:#7A8BB6;}
	.st5{fill:#030404;}
</style>
<g id="Group_143" transform="translate(-862 -389)">
	<g id="Component_4_1" transform="translate(862 389)">
		
			<linearGradient id="Path_1317_00000031906008897315583580000011933716758006396041_" gradientUnits="userSpaceOnUse" x1="-47.7766" y1="297.132" x2="-45.9378" y2="297.132" gradientTransform="matrix(158.712 0 0 -159.1408 7586.6768 47435.5273)">
			<stop  offset="0" style="stop-color:#7DC8DA"/>
			<stop  offset="0.992" style="stop-color:#E67FB0"/>
		</linearGradient>
		<path id="Path_1317" style="fill:url(#Path_1317_00000031906008897315583580000011933716758006396041_);" d="M295.5,141
			C290.9,60.5,222-1,141.5,3.6C67.5,7.9,8.4,66.9,4.2,141l0,0v0.1C4,143.8,4,146.5,4,149.3c0,2.8,0.1,6,0.1,6L4.2,296h291.6V146.5
			L295.5,141z"/>
		
			<linearGradient id="Path_1318_00000022543908329791846970000010277972945691778971_" gradientUnits="userSpaceOnUse" x1="553.9203" y1="-1379.7488" x2="555.7591" y2="-1379.7488" gradientTransform="matrix(0.6482 0 0 -0.1118 -97.2294 -70.4447)">
			<stop  offset="6.000000e-03" style="stop-color:#E6A480"/>
			<stop  offset="0.998" style="stop-color:#F5B463"/>
		</linearGradient>
		<path id="Path_1318" style="fill:url(#Path_1318_00000022543908329791846970000010277972945691778971_);" d="M263,83.9
			c-1.7-0.3-1.2-0.2-0.7-0.1c0.2,0,0.4,0.1,0.6,0.1L263,83.9z"/>
		
			<linearGradient id="Path_1319_00000018948029474416481050000007780147372085156030_" gradientUnits="userSpaceOnUse" x1="530.262" y1="-1661.0725" x2="532.1008" y2="-1661.0725" gradientTransform="matrix(0.6484 0 0 -0.1118 -115.4 -32.9427)">
			<stop  offset="6.000000e-03" style="stop-color:#E6A480"/>
			<stop  offset="0.998" style="stop-color:#F5B463"/>
		</linearGradient>
		<path id="Path_1319" style="fill:url(#Path_1319_00000018948029474416481050000007780147372085156030_);" d="M229.6,152.9
			c-1.7-0.3-1.2-0.2-0.7-0.1c0.2,0,0.4,0.1,0.6,0.1L229.6,152.9z"/>
		<path id="Path_1321" class="st3" d="M239,272.3c-0.1-2.1-0.1-4.8-0.5-7.4c0.1-0.2,0.1-0.4,0.2-0.7c-0.1,0-0.2-0.1-0.3-0.1
			c-0.1-1-0.2-1.9-0.4-2.9v-95.7c-0.2-4-0.4-8-0.6-12.1c0.3-0.2,0.5-0.6,0.5-0.9l0.6-13.1c-5.8,0.3-11.6-0.1-17.3,0
			c-3.8,0.1-7.6,0-11.5-0.2c-3.5-0.4-7-0.3-10.5,0.3c-1,0.2-2-0.5-2.2-1.5c0-0.2,0-0.5,0-0.7c0-0.4,0-0.8,0-1.2
			c0.4-8.2-0.6-16.5-2.7-24.4c-1.9-6.6-5.2-12.8-9.6-18c-1.2-0.9-2.5-1.8-3.8-2.6c-8.3-5.4-17.9-8.3-27.8-8.3
			c-0.5,0-0.9-0.1-1.3-0.4c-3.9,0.4-7.8,1.3-11.5,2.6c-4.1,1.4-7.9,3.3-11.5,5.6c-4.5,3.6-8.2,8.2-10.7,13.4
			c-2.5,5.6-2.9,11.9-4.4,17.8c-0.1,0.3-0.2,0.6-0.5,0.8c-1,8.6-1.2,17.2-0.7,25.8c0.1,0.1,0.1,0.1,0.2,0.2c0.1,0.1,0.2,0.3,0.3,0.4
			c0,0,0,0.1,0.1,0.1c0,0.1,0.1,0.1,0.1,0.2c0.1,0.2,0.2,0.3,0.2,0.5l0.1,0.5c0,0.3-0.1,0.6-0.2,0.9l-0.3,0.4
			c-0.2,0.2-0.4,0.3-0.6,0.4c-0.2,0.1-0.5,0.2-0.7,0.2c-0.2,0-0.4,0-0.5-0.1c-1.8,2.6-0.3,6.7-2.3,9.6c-0.8,1.2-1.7,2.2-2.5,3.3
			c0,0.4-0.1,0.8-0.3,1.1c-0.9,1.3-1.8,2.6-2.7,4c-0.4,0.7-0.9,1.4-1.3,2.1c-7.5,12-13,25.7-17.8,38.8c0,0,0,0.1,0,0.1
			c0.1,0.1,0.2,0.1,0.3,0.2c-0.1,0.2-0.3,0.4-0.4,0.6c-0.2,0.3-0.3,0.6-0.4,1c-1.4-0.3-2.9-0.6-4.3-0.9c-6.5-2.1-13-4-19.6-5.7
			c-0.2,0-0.3-0.1-0.5-0.1c-3.1-1-6.2-1.9-9.3-2.7l-6.7-2c0-0.1-0.1-0.1-0.1-0.2c-0.3-0.6-1.1-0.8-1.7-0.4c-0.6,0.3-0.8,1.1-0.4,1.7
			l0.1,0.1c0,0.4,0.3,0.8,0.7,1c1,1.4,1.9,2.9,2.8,4.4c3.9,6.5,6.8,13.5,8.6,20.8c0.2,0.6,0.9,1,1.5,0.8c0.3-0.1,0.6-0.3,0.7-0.6
			c2,4.6,3.9,9.1,5.9,13.7c0.2,0.4,0.6,0.6,1,0.6c0.2,0.4,0.4,0.9,0.7,1.2c1,1,2.3,1.6,3.7,1.9l8,2.4c0.3,0.5,0.7,0.8,1.2,1
			c0.4,0.1,0.8,0.3,1.1,0.4l-0.6,1.2c-0.6,1-0.2,2.4,0.8,3c0,0,0.1,0,0.1,0.1c0.2,0.2,0.5,0.4,0.7,0.6c0.9,0.4,1.9,0.7,2.9,0.9
			l9.5,3.8c0.6,0.3,1.2,0.2,1.7-0.1c1.8,0.6,3.6,0.8,4.5-1c0.2-0.4,0.3-0.8,0.3-1.2c2.9,1,5.8,2,8.7,3c0.1,5.3,0.2,10.6,0.2,15.8
			c0,1.3,0.4,2.6,1.2,3.7c0,1.1-0.1,2.3-0.1,3.4c0,0.3-0.6,9.5-0.7,12.1H129c0.2,0,0.5,0,0.7,0.1h37.5c0.1,0,0.1-0.1,0.2-0.1
			c0.9,0,1.8-0.1,2.8-0.1c0.2-0.1,0.4-0.1,0.7-0.1h49.3c0.2,0.1,0.5,0.1,0.7,0.1h16.1c0.2,0.1,0.4,0.1,0.6,0.1
			c0.3,0,0.5-0.1,0.7-0.2c0.9-0.3,1.4-1.3,1.1-2.2c0-0.1,0-0.1-0.1-0.2v-4.4c0-0.1,0-0.2,0-0.3c0.1-0.2,0.2-0.4,0.2-0.6
			C240.7,282.7,239.2,277.1,239,272.3z"/>
		<path id="Path_1322" class="st4" d="M212,159.8c-0.8-3.4-3.7-5.3-4.6-8.4c-0.6-2,0.2-4.2,0.1-6.2c-0.1-1-0.4-1.9-0.9-2.7
			c-0.4-0.6-0.9-1.3-0.6-2.1c0.4-1.2-1.5-1.7-1.9-0.5c-0.1,0.2-0.1,0.3-0.1,0.5c-0.5-0.3-1.1-0.2-1.4,0.3c0,0,0,0,0,0
			c0,0-0.1,0-0.1,0c-0.1-0.7-0.7-1.3-1.4-1.5c-0.4-0.1-0.9,0.1-1.1,0.4l-0.1,0.2c-0.1-0.1-0.3-0.1-0.5,0c-0.5,0.1-0.9,0.4-1.3,0.8
			c-0.2,0.4-0.3,0.9-0.3,1.4c0,0.2,0,0.3,0,0.5c0,0.9,0.5,1.7,1.4,2c0.2,0.1,0.5,0.1,0.7,0.1c0,0.1,0.1,0.2,0.1,0.3c0,0,0,0.1,0,0.1
			c-0.1,0.1-0.1,0.2-0.2,0.4c-0.1,0.3-0.1,0.7-0.1,1c-0.1-0.1-0.3-0.1-0.4-0.2c0-0.2-0.1-0.4-0.2-0.6c-0.3-0.4-0.8-0.6-1.3-0.4
			l-0.1,0c0-0.1,0-0.1,0-0.2c-0.2-2-0.2-3.9,0.1-5.9c0.2-1.3-1.4-1.7-2.3-1.1c0.1-1.5,0.3-3,0.4-4.4c0.2-1.9,0.3-3.8,0.4-5.7
			c0-0.8,0-1.6-0.1-2.4c0-1,0-2-0.1-3c-0.1-1.3-0.4-2.5-0.6-3.8c-0.1-0.5-0.8-0.3-0.9,0.1c-0.2,1.3-0.4,2.6-0.5,4
			c-0.1,1.2-0.2,2.4-0.3,3.7c-0.1,2.5-0.4,5.1-0.8,7.6c-0.8,5-2,10-3.5,14.8c-0.1,0.2-0.1,0.4,0,0.6c0.4-0.3,0.9-0.6,1.3-0.9
			c0.6-0.5,1.6-0.4,2.1,0.2c0,0,0,0,0,0.1h0.3c0,0,0.1,0,0.1,0c0.2,0,0.4,0.1,0.6,0.1l0.1,0l0.1,0l0.2,0.1l0.1,0
			c-0.1-0.1-0.1,0,0,0.1c0,0,0,0,0,0.1c0,0.1,0,0.1,0,0l0,0.1l0,0.1c0-0.1,0-0.1,0,0c0,1.1,0,2.1-0.2,3.2c-0.2,1.2-0.4,2.4-0.6,3.5
			c-0.1,0.3,0,0.6,0,0.8c-2,0.9-4,1.8-6,2.6c-12.4,4.8-25.6,7.5-39,8c-2.7,0.4-5.4,0.7-8.1,0.9c-7.5,0.4-15.8,0.1-22.8-3.1h-0.2
			c-0.3,0-0.6,0.3-0.6,0.6c0,0.2,0.1,0.4,0.3,0.5c2.7,1.2,5.5,2,8.4,2.4c2.9,0.5,5.8,1,8.7,1.3c5.9,0.6,11.7,0.7,17.6,0.3
			c11.8-0.7,23.4-3.1,34.6-7.1c3.2-1.2,6.3-2.4,9.4-3.9c1.5-0.7,3-1.4,4.4-2.2c0.5-0.3,1-0.5,1.5-0.8c1.5,0.4,2.9,0.9,4.2,1.7
			c0.4,0.5,0.9,0.9,1.5,1.2c0.5,0.2,1,0.4,1.4,0.7c0.1,0,0.1,0.1,0.2,0.1l0,0c0.1,0.1,0.2,0.2,0.3,0.2l0,0c0,0,0.1,0.1,0.1,0.1
			c0,0,0,0.1,0.1,0.2c0.1,0.4,0.4,0.7,0.8,0.7c0,0.2,0.2,0.4,0.4,0.6c0.2,0,0.5,0,0.7,0.1c0.8,0.3,1.5,0.7,2.1,1.3
			C213.2,162.2,212.6,161,212,159.8z M199.8,153.9c-0.1,0.1-0.3,0.1-0.4,0.2c-0.6,0.3-1.1,0.6-1.7,0.9c0.1-0.3,0.1-0.6,0.2-0.9
			c0.5,0.4,1.3,0.3,1.7-0.2c0.1-0.1,0.2-0.2,0.2-0.4c0.1-0.3,0.1-0.6,0.1-0.9c0-0.2-0.1-0.4-0.1-0.6c0-0.1,0-0.1,0-0.2
			c0-0.5-0.1-0.9-0.1-1.4c0-0.1,0-0.2,0-0.4c0,0,0-0.1,0-0.1c0-0.2,0.1-0.5,0.1-0.7c0.1-0.2,0.1-0.5,0.2-0.7c0,0,0.1-0.1,0.1-0.2
			c0.1,0.6,0.2,1.1,0.3,1.7c0,0.1-0.1,0.3-0.1,0.4c-0.1,0.3-0.1,0.6,0.1,0.8C200.4,152.1,200.1,153,199.8,153.9L199.8,153.9z"/>
		<path id="Path_1323" class="st4" d="M220.2,168.3c-13.1,0.1-25.2,7.6-32.8,18c-3.9,5.6-6.9,11.7-9,18.2c-1.1,3.2-2,6.4-2.7,9.7
			c-0.7,3.8-1.2,7.7-1.4,11.5c-0.3,4.3-0.4,8.7-0.3,13c0,2.2,0.1,4.4,0.2,6.6c0.1,1.1,0.1,2.2,0.2,3.3c0,0.5,0.1,1.1,0.2,1.6
			c0.1,0.6,0.3,1.1,0.6,1.7c0.1,0.3,0.4,0.4,0.7,0.4c1,0.4,2.2,0.3,3.1-0.2l11.6-4.4c0.4,0.9,1.1,1.9,2.1,1.9c1.3-0.1,1.7-1.7,1.8-3
			c0-0.8,0.1-1.5,0.1-2.3c-0.1-4.7-0.6-9.3-1.4-13.9c-0.3-1.9-0.6-3.9-1.1-5.8c0.1-1,0.1-2.1,0.1-3.1c0-1.9,0.3-3.7,0.2-5.6
			c0.1-3.6-0.5-7.3-1.6-10.7c-0.1-0.2-0.3-0.3-0.5-0.3c-0.1,0-0.2,0.1-0.3,0.3c-0.7,3.5-0.7,7.1-0.2,10.6c0.1,1.1,0.3,2.1,0.4,3.2
			c-0.2-0.6-0.5-1.2-0.7-1.8c-0.3-0.6-0.5-1.3-0.8-1.9c-0.3-0.8-0.9-1.5-1.2-2.3c0-0.1-0.2-0.2-0.3-0.1c-0.1,0-0.2,0.2-0.2,0.3
			c0.1,0.8,0.2,1.6,0.2,2.5c0.1,0.7,0.2,1.4,0.3,2.2c0.2,1.5,0.3,3,0.5,4.5c0.3,2.9,0.9,5.8,1.3,8.7s0.6,5.9,0.7,8.8
			c0,0.4,0,0.9,0.1,1.3c0,0.1,0,0.1,0,0.2c-0.2,1-0.6,1.9-1.1,2.8c-0.3,0.4-0.5,0.8-0.9,1.2c-3.4,1.5-6.9,2.8-10.4,4.2
			c-0.3,0.1-0.5,0.2-0.8,0.4c0-0.2,0-0.5,0-0.7c0-0.9-0.1-1.9-0.1-2.8c-0.1-1.9-0.2-3.9-0.2-5.8c-0.1-3.8-0.1-7.5,0-11.3
			c0.1-3.8,0.4-7.6,1-11.3c0.4-3.3,1-6.5,1.8-9.8c3.2-12.3,10.5-23.8,21.4-30.7c5.7-3.7,12.4-5.7,19.2-5.9c0.8-0.1,1.5-0.8,1.4-1.6
			C221.6,169,221,168.4,220.2,168.3z"/>
		<path id="Path_1324" class="st4" d="M190,262.5c-0.7-0.3-1.5-0.4-2.3-0.1l-2.2,0.5c-1.4,0.3-2.7,0.6-4.1,0.8
			c-1.4,0.2-2.8,0.5-4.1,0.7c-0.7,0.1-1.4,0.3-2,0.5c-0.4,0.1-0.8,0.2-1.1,0.4c-0.3,0.2-0.5,0.4-0.8,0.7c-0.3,0.3-0.2,0.7,0,1
			c0.1,0.1,0.2,0.1,0.2,0.1c0.3,0.1-0.7,0.7-0.4,0.7s-0.3,0.6,0.1,0.6c0.8,0,3.6-1,4.4-1.1c1.4-0.2,2.7-0.5,4.1-0.8
			c1.4-0.3,2.7-0.6,4.1-0.8c0.7-0.1,1.4-0.3,2.1-0.4c0.8,0,1.6-0.4,2.2-0.9c0.5-0.5,0.4-1.3-0.1-1.8
			C190.1,262.6,190.1,262.5,190,262.5z"/>
		<path id="Path_1325" class="st4" d="M111,162.9c0-0.1-0.1-0.1-0.2-0.1c-1.5,0.5-2,2.6-2.6,3.9c-0.7,1.7-1.5,3.4-2.1,5.1
			c-1.2,3.4-2.3,6.9-3.3,10.4c-1.9,7-3.2,14.2-3.9,21.5c-0.4,4.1-0.5,8.2-0.5,12.3c0,1,0.9,1.8,1.9,1.7c1,0,1.7-0.8,1.7-1.7
			c-0.2-7.1,0.3-14.2,1.3-21.2c1-7.1,2.5-14.1,4.7-20.9c0.6-1.9,1.2-3.8,1.8-5.7c0.3-1,0.7-2,1.1-2.9
			C111.3,164.6,111.3,163.7,111,162.9z"/>
		<path id="Path_1326" class="st4" d="M97.9,257.2c-0.7-0.6-1.7-1-2.6-1.2c-0.9-0.2-1.7-0.5-2.5-0.7c-1.8-0.5-3.6-1.1-5.3-1.6
			c-1.7-0.6-3.3-1.1-5-1.7c-1.3-0.4-3.5-1.3-4.6-0.2c-0.1,0.1-0.2,0.3-0.1,0.5c0.5,0.5,1,0.8,1.7,0.9c0.7,0.2,1.5,0.5,2.2,0.8
			c1.6,0.7,3.3,1.3,5,2c1.7,0.6,3.3,1.2,5,1.8c0.8,0.3,1.7,0.5,2.5,0.8c0.9,0.4,1.9,0.6,2.9,0.5C97.9,258.6,98.5,257.8,97.9,257.2z"
			/>
		<path id="Path_1327" class="st4" d="M219.5,272.7c-1.6,0.4-3.3,0.7-4.9,0.9c-1.6,0.3-3.2,0.7-4.8,1.1c-3.2,0.8-6.4,1.7-9.6,2.7
			c-3.2,0.9-6.5,1.8-9.8,2.6c-3.3,1.1-6.6,1.9-10,2.4c-0.5,0.1-1.1,0.1-1.6,0.2c-1-0.1-2,0-3-0.1c-1.7-0.1-3.4-0.1-5,0.1
			c-0.4,0-0.7-0.1-1.1-0.1c0.4-0.2,0.7-0.4,1-0.6c0.2-0.2,0.5-0.3,0.7-0.5l0,0c0.5-0.1,0.9-0.4,1.3-0.7c0.3-0.3,0.5-0.7,0.5-1
			c0.1-0.1,0.1-0.3,0.1-0.5v0l0,0c0.2-0.4,0.1-0.9-0.3-1.2c-0.1,0-0.2-0.1-0.3-0.1c0,0-0.1-0.1-0.1-0.1l-0.3-0.1
			c-0.3-0.3-0.7-0.4-1.2-0.4c-0.4,0-0.8,0.1-1.2,0.3c-0.7,0.3-1.5,0.6-2.2,0.8c-0.4,0.1-0.8,0.2-1.2,0.4c0,0-0.1-0.1-0.1-0.1
			c0,0-0.1,0-0.1-0.1c0,0,0,0-0.1-0.1c-0.3-0.3-0.7-0.4-1.2-0.3c-0.2,0.1-0.4,0.2-0.5,0.3c-0.1,0.1-0.3,0.3-0.3,0.5
			c-0.1,0.2-0.1,0.4-0.1,0.7c0,0.1,0,0.1,0,0.2c0,0.3,0.1,0.6,0.3,0.9c0.2,0.3,0.4,0.6,0.8,0.8c0,0,0,0,0,0.1c0,0.1,0,0.2,0.1,0.3
			l-0.5-0.2c-0.4-1.1-1.2-1.9-2.1-2.5c-0.2-0.1-0.5-0.3-0.8-0.4c-2.5,0.3-5,0.3-7.5-0.2c-1.4-0.3-2.7-0.7-4.1-0.9
			c-0.8-0.1-1.5-0.4-2.1-0.7c-0.6-0.4-1-0.9-1.6-1.3c-0.1-0.1-0.3-0.2-0.4-0.3c0,0-0.1,0-0.1,0c-0.1,0-0.3,0-0.4,0
			c0,0-0.1,0-0.1-0.1c-0.3-0.2-0.6-0.4-1-0.4c-0.2,0-0.3,0-0.5,0c0.1,0,0.3,0.1-0.1,0c-0.4-0.1-0.7-0.2-1-0.4
			c-0.8-0.5-1.5-1.1-2.1-1.7c-0.8-0.8-1.8-1.4-2.8-1.9c-0.6-0.3-1.3-0.6-1.9-0.7c-0.7-0.1-1.4-0.2-2.1-0.4c-2.8-0.7-5.5-1.6-8.1-2.7
			c-2.8-1-5.7-2.1-8.5-3.2c-1.5-0.6-3.1-1.2-4.6-1.7c-0.8-0.3-1.6-0.6-2.4-0.8c-0.4-0.1-0.9-0.2-1.3-0.2c-0.1,0-0.3,0-0.4,0
			c-0.7-0.5-1.6-0.3-2.1,0.4c-0.1,0.1-0.2,0.3-0.2,0.4c-0.4,1.9-0.5,3.8-0.3,5.8c0.1,2,0.2,3.9,0.3,5.9c0.1,1.9,0.5,3.8,0.6,5.7
			c0,1,0.1,2,0.3,3c0,0.2,0.1,0.3,0.1,0.5c-0.1,0.2-0.3,0.4-0.4,0.6c-1,0.4-1.7,1.4-1.7,2.6c0.1,0.6,0,1.3-0.3,1.9
			c0.3,0.9,1.2,1.4,2.1,1.2l41.1-8.1c0.3-0.1,0.5-0.2,0.7-0.4c1.1,0.6,2.4,1,3.6,1.3c1.4,0.2,2.8,0.3,4.2,0.3c1.3-0.1,2.6,0,3.8,0.3
			c0.4,0.2,0.8,0.4,1.1,0.7c0.3,0.7,0.8,1.4,1.4,1.8c1.7,1.1,3.6,1.7,5.6,1.8c2,0.1,4.1,0.1,6.1-0.1c1.1-0.1,2.1-0.4,3.2-0.5
			c0.4,0,0.7-0.1,1.1-0.1c2.2-0.1,4.3-0.3,6.4-0.6c8.4-1,16.7-2.7,24.9-4.9c2.3-0.6,4.6-1.2,6.9-1.8c1-0.2,1.9-0.5,2.8-1
			c1-0.7,1.6-1.8,1.6-3c0-0.9-0.8-1.7-1.7-1.7C219.8,272.6,219.7,272.7,219.5,272.7z"/>
		<path id="Path_1328" class="st4" d="M183,121.5c-0.8-0.7-1.7-1.2-2.7-1.4c-2-0.5-4.1,0.5-5,2.4c-0.6,1.3-0.6,2.8,0,4.1
			c0.7,1.2,1.8,2.2,3.2,2.5c1.4,0.5,2.9,0.4,4.3-0.2c1.4-0.7,2.2-2.1,2.1-3.7C184.8,123.8,184.1,122.4,183,121.5z"/>
		<path id="Path_1329" class="st4" d="M210.9,160.3c-0.5-0.8-1.2-1.5-2-2.1c-0.7-0.4-1.4-0.8-2.2-1c-1.5-0.2-2.9-0.8-4.1-1.8
			c-0.7-0.7-1.7,0.4-1.1,1.1c0.5,0.5,1.1,0.9,1.7,1.1c0,0.1,0,0.1,0,0.2c0.3,1.2,1.6,1.6,2.6,2l4.1,1.5c0.4,0.1,0.8-0.1,0.9-0.6
			C211,160.6,211,160.5,210.9,160.3z"/>
		<g id="Group_12">
			<path id="Path_1357" class="st5" d="M186.6,124.7c0-3.7-3-6.8-6.8-6.8s-6.8,3-6.8,6.8c0,3.7,3,6.8,6.8,6.8
				C183.6,131.4,186.6,128.4,186.6,124.7z M175.8,124.7c0-2.2,1.8-4,4-4c2.2,0,4,1.8,4,4s-1.8,4-4,4c0,0,0,0,0,0
				C177.6,128.7,175.8,126.9,175.8,124.7z"/>
			<path id="Path_1358" class="st5" d="M203.2,229c0.1,0.5,0.7,0.8,1.2,0.7c0,0,0.1,0,0.1,0c0.7,0,1.5,0,2.2-0.1
				c0.9-0.1,1.8-0.1,2.7-0.2c1.9-0.2,3.8-0.3,5.7-0.5c1.8-0.2,3.7-0.4,5.5-0.6c0.9-0.1,1.7-0.2,2.6-0.3c0.9-0.1,1.8-0.1,2.3-0.9
				c0.1-0.1,0.1-0.3,0.1-0.5c0.2-0.9,0.2-1.8,0.1-2.7c0-0.9-0.1-1.9-0.1-2.8c-0.1-2-0.4-4-0.6-6c-0.4-3.7-1.1-7.4-2.1-11
				c0.1-0.2,0.1-0.5,0-0.7c-0.3-0.7-1.3-0.5-2-0.4c-0.9,0.1-1.9,0.1-2.8,0.1c-2.1,0-4.1,0-6.2,0c-2.1,0-4.2,0.1-6.4,0.3
				c-1,0.1-2.1,0.1-3.2,0.2c-0.9,0.1-2.1-0.1-2.6,0.8c-0.1,0.2-0.1,0.5,0,0.8c0.1,0.1,0.1,0.1,0.2,0.2c0,0.9,0,1.8,0.1,2.7
				c0.1,1,0.3,2,0.5,3c0.3,2,0.7,4.1,1,6.1c0.3,2,0.6,4,0.8,6c0.1,1,0.2,2,0.4,3C202.8,226.9,203,227.9,203.2,229z M209.3,227.3
				c-0.9,0.1-1.8,0.1-2.7,0.2c-0.4,0-0.9,0-1.3,0.1c-0.1-0.6-0.2-1.3-0.2-1.9c-0.1-1-0.2-2-0.4-3c-0.3-2-0.6-4-0.9-6.1
				c-0.2-1.2-0.4-2.4-0.7-3.6c0.3-0.1,0.7-0.2,1-0.2c1.1-0.2,2.2-0.4,3.3-0.6c0.5-0.1,1-0.2,1.5-0.2c0,0.2,0,0.5,0.1,0.7
				c0,0.7,0.1,1.3,0.1,2c0.1,1.5,0.2,2.9,0.3,4.4c0.2,2.7,0.5,5.4,0.8,8.1C209.9,227.2,209.6,227.3,209.3,227.3L209.3,227.3z
				 M214.8,226.8c-1,0.1-1.9,0.2-2.9,0.3c-0.3-2.7-0.6-5.4-0.8-8.1c-0.1-1.5-0.3-2.9-0.5-4.4c-0.1-0.7-0.1-1.5-0.2-2.2
				c0-0.2,0-0.4,0-0.6c1.3-0.1,2.5-0.2,3.8-0.2c0.8,0,1.6,0,2.4,0c0,0.3,0.1,0.5,0.1,0.8c0,0.7,0.1,1.3,0.1,2
				c0.1,1.5,0.2,2.9,0.3,4.4c0.2,2.6,0.5,5.1,0.7,7.7C216.8,226.6,215.8,226.7,214.8,226.8L214.8,226.8z M224,223.9
				c0.1,0.6,0.2,1.2,0.3,1.9c-0.4,0-0.8,0.1-1.1,0.1c-0.9,0.1-1.8,0.2-2.7,0.3c-0.3,0-0.7,0.1-1,0.1c-0.3-2.6-0.5-5.1-0.8-7.7
				c-0.1-1.5-0.3-2.9-0.5-4.4c-0.1-0.7-0.1-1.5-0.2-2.2c0-0.2,0-0.3,0-0.5c0.6,0,1.3-0.1,1.9-0.2c0.9-0.2,1.8-0.4,2.6-0.8
				c0.1,1.6,0.3,3.1,0.5,4.7c0.2,1.9,0.3,3.9,0.6,5.8C223.8,222,223.9,223,224,223.9L224,223.9z M205.8,205.2
				c2.3-0.1,4.6-0.2,6.9-0.3c2.1,0,4.2,0.1,6.3-0.1c1.1,0,2.2-0.2,3.3-0.5c0,1.5,0,2.9,0.1,4.4c-0.4,0.1-0.7,0.2-1,0.3
				c-0.9,0.2-1.8,0.4-2.7,0.4c-1.9,0.1-3.9-0.1-5.8,0c-2.1,0.1-4.1,0.3-6.2,0.7c-1,0.2-2.1,0.4-3.1,0.6c-0.3,0.1-0.6,0.1-0.8,0.1
				c0-0.1,0-0.1,0-0.2c-0.2-1-0.4-2-0.6-2.9c-0.2-0.8-0.5-1.6-0.8-2.3c0.4,0,0.8-0.1,1.2-0.1C203.6,205.4,204.7,205.3,205.8,205.2z"
				/>
			<path id="Path_1359" class="st5" d="M113.6,202.6c4.9,1.4,9.9,2.2,14.9,2.3c0.6,0,1-0.5,1-1l0.3-6.9c0.3-2.2,0.1-4.5-0.4-6.6
				c-0.1-0.3-0.5-0.4-0.6-0.1c0,0,0,0,0,0c-0.1-0.1-0.2-0.2-0.4-0.3c-1.2-0.3-2.4-0.4-3.6-0.4c-1.3-0.1-2.6-0.2-3.8-0.4
				c-2.5-0.3-5-0.7-7.5-1.2c-0.5-0.1-1.1,0.2-1.3,0.7c0,0.1,0,0.2,0,0.3c0.2,4.2,0.5,8.3,0.7,12.5
				C112.8,202.1,113.1,202.5,113.6,202.6z M124.5,191.6c1.3,0.2,2.6,0.2,3.8,0c-0.4,1.7-0.6,3.5-0.6,5.2c-0.1,2-0.2,3.9-0.3,5.9
				c-4.3-0.2-8.5-0.9-12.7-2c-0.2-3.5-0.4-7-0.6-10.5c2.1,0.4,4.2,0.7,6.4,0.9C121.9,191.4,123.2,191.5,124.5,191.6L124.5,191.6z"/>
			<path id="Path_1360" class="st5" d="M297.3,140.9L297.3,140.9c-4.6-81.4-74.4-143.6-155.8-139C67.2,6.1,7.6,65,2.6,139.3H2.5v1.7
				c-0.2,2.9-0.2,5.7-0.2,8.3c0,2.8,0.1,6,0.1,6l0.1,142.4h295V146.5L297.3,140.9z M107,267.3c0-1.7-0.1-3.5-0.1-5.2
				c4.3,1.5,8.5,2.9,12.8,4.4c2.7,0.9,5.4,1.9,8.1,2.8c1.3,0.4,2.6,0.9,3.9,1.3c0.6,0.2,1.3,0.4,1.9,0.5c0.2,0.4,0.6,0.6,1,0.6
				l2.5-0.3c0,0.2,0.1,0.4,0.3,0.5c0.7,0.6,1.4,1.1,2.2,1.5c0.8,0.5,1.5,0.9,2.3,1.4c1.4,0.8,2.7,1.7,4.1,2.5
				c2.2,1.6,4.7,2.7,7.4,3.3c1.6,0.2,3.2,0.1,4.8-0.1c1.2-0.1,2.4-0.2,3.6-0.4c0,0,0,0.1,0,0.1c1.7,3.8,6.1,5,10,5.1
				c2.5,0.1,5-0.1,7.4-0.5c-0.1,3.1-0.3,6.3-0.4,9.4h-71.2C107.3,285.3,107.2,276.3,107,267.3z M78,253.5c0.1-0.4,0.2-0.8,0.2-1.2
				l17.8,6.1c-0.1,0.2-0.2,0.5-0.3,0.8s-0.2,1.2-0.5,1.3c-0.3,0.1-1.3-0.4-1.6-0.4c-0.6-0.2-1.2-0.4-1.8-0.5c-2.3-0.7-4.6-1.3-6.9-2
				l-3.4-1c-1.2-0.3-2.3-0.7-3.5-1.1C77.4,255,77.9,254.2,78,253.5z M79,250.3L63.3,245c-5.8-11.7-11.6-23.3-17.4-35
				c-0.8-1.6-1.6-3.3-2.4-4.9c-0.3-0.6-0.7-1.5-1.1-2.2c0.3,0.1,0.6,0.2,0.8,0.2l3.6,1c2.3,0.7,4.6,1.3,6.9,1.9l13.9,3.8l27.4,7.5
				c2,0.5,4,1,5.9,1.6c0.2,0.2,0.5,0.3,0.8,0.2l0.8,0.2c2.4,0.7,4.8,1.2,7.2,1.6c0.2,1.5,0.7,2.9,1.6,4.2c0.8,1.6,1.7,3.2,2.5,4.9
				l5.1,9.9c3.4,6.6,6.8,13.1,10.3,19.7l5.2,10c-0.1,0-0.1,0-0.2,0.1c-1.6-0.7-3.2-1.3-4.9-1.8c-2.4-0.8-4.7-1.6-7.1-2.5l-14.3-4.9
				C98.2,257,88.6,253.7,79,250.3L79,250.3z M110.5,160l-0.1-1.7c0-1.1-0.1-2.3-0.1-3.4c0-0.7,0.2-1.4,0.9-1.5c0.2,0,0.4,0,0.6,0
				c0.1,0.2,0.3,0.3,0.5,0.4c3.8,3.9,9.4,5.7,14.6,6.6c5.8,0.8,11.7,1,17.6,0.7c12.2-0.3,24.4-2.4,36-6.4c3.1-1.1,6.2-2.4,9.2-3.8
				c1.5-0.7,3-1.5,4.4-2.3c1.4-0.7,2.7-1.6,3.8-2.6l0.1,0c-0.2,0,0.3,0.1,0.1,0c0.1,0,0.2,0.1,0.2,0.1c0,0,0,0,0,0l0.1,0.1
				c0,0.1,0.1,0.1,0.1,0.2c0.1,0.1,0.1,0.3,0.1,0.4c0.1,0.3,0.1,0.7,0.1,1c0,1.9,0,3.7,0.1,5.6c-1,0.4-2,0.9-2.9,1.5
				c-1.3,0.7-2.7,1.4-4.1,2.1c-2.7,1.3-5.5,2.5-8.4,3.5c-5.9,2.1-11.9,3.7-18,4.8c-6.2,1.1-12.5,1.8-18.8,2.1
				c-6.1,0.4-12.3,0.3-18.4-0.1c-6.3-0.3-12.3-2.4-17.3-6.3c-0.1-0.1-0.2-0.2-0.4-0.2C110.5,160.5,110.5,160.2,110.5,160z
				 M237.3,167.7c0,10.5,0.1,21,0.1,31.5c0,10.8,0.1,21.6,0.1,32.4c0,10.5,0.1,21.1,0.1,31.6c0,9.6,0,19.3,0.1,28.9
				c0,0.7,0.1,1.4,0.1,2.2h-20.2c0,0,0-0.1,0-0.1c-0.4-6.5-0.4-13-0.7-19.4c0.8-0.3,1.6-0.5,2.4-0.8c5.2-1.9,10.4-4.7,13.1-9.6
				c1.4-2.7,2.1-5.6,2.1-8.6c0-4.4-0.3-8.8-0.5-13.1c-0.4-9-0.7-18.1-1.1-27.1c-0.2-4.4-0.3-8.8-0.6-13.2c0-0.4,0-0.8-0.1-1.2
				c0.1-0.2,0.2-0.4,0.2-0.6v-43.6c-0.1-0.6-0.5-1.1-1-1.3h-9.3c-0.6,0.2-1,0.7-1,1.3v11.7c-0.4-0.4-0.8-0.7-1.2-1.1
				c0,0-0.1-0.1-0.1-0.1c-0.9-0.7-1.8-1.4-2.7-2.1c0-0.6,0-1.2,0-1.8c0-1.1,0-2.3,0-3.4c0-2.2,0-4.4,0-6.6c0-2.2,0-4.4,0-6.6
				c0-1.1,0-2.3,0-3.4c0-0.9-0.1-1.9-0.3-2.8h0.5h10.4c3.3,0,6.6,0.1,9.8-0.2C237.1,149.6,237.3,158.7,237.3,167.7L237.3,167.7z
				 M110.6,220c-0.4-0.2-0.9-0.3-1.3-0.5c0.1-0.2,0.2-0.4,0.2-0.6c0.1-3.7,0.3-7.4,0.6-11c0.3-3.6,0.7-7.3,1-10.9
				c0.5-7.4,0.7-14.8,1.1-22.1c0.1-2,0.2-4.1,0.3-6.1c0.1-1.1,0.1-2.1,0.1-3.2c0-0.1,0-0.3,0-0.4c3.8,2.2,8,3.5,12.3,4
				c6.2,0.8,12.4,1,18.7,0.7c13-0.3,25.9-2.4,38.3-6.4c3.4-1.1,6.6-2.4,9.9-3.9c1.6-0.7,3.1-1.5,4.6-2.3c0.7-0.4,1.4-0.8,2.1-1.2
				c0.6,0.6,1.3,1.1,2.1,1.5l0.3,0.1c-0.8,0.2-1.6,0.6-2.3,0.9c-1.6,0.6-3.1,1.3-4.6,2.1c-2.9,1.5-5.6,3.2-8.2,5.2
				c-5,3.9-9.4,8.5-12.9,13.8c-8.3,12.4-11.6,27.3-12.7,41.9c-0.7,9.1-0.6,18.2-0.9,27.3l-22.9-5.1c-2.6-0.6-5.1-1.1-7.7-1.7
				c-1.2-0.3-2.5-0.5-3.7-0.8c-1-0.3-2.1-0.5-3.2-0.6l-5.5-10.5c-0.9-1.8-1.9-3.7-2.9-5.5c-0.5-0.9-1-1.8-1.5-2.7
				c-0.3-0.6-0.7-1.1-1.2-1.6C110.9,220.4,110.9,220.2,110.6,220C110.6,220,110.6,220,110.6,220z M108.5,195.5
				c-0.3,3.7-0.7,7.4-1,11.1c-0.4,4-0.6,8-0.7,12.1c-1.4-0.5-2.8-0.9-4.2-1.3c0.3-14.4,1.3-29,5.4-42.9c0.5-1.7,1.1-3.4,1.7-5
				c-0.1,1.4-0.2,2.7-0.3,4.1c-0.2,3.7-0.3,7.3-0.4,11C109,188.2,108.8,191.8,108.5,195.5z M184.9,176.4l0.5-0.4c1-0.8,2-1.6,3-2.4
				c2-1.6,4.1-3.1,6.3-4.5c1.1-0.7,2-1.6,3.1-2.2c1.1-0.7,2.2-1.3,3.4-1.9c1.2-0.6,2.4-1.1,3.6-1.6c1.1-0.4,2.2-0.9,3.3-1.4
				c0.3,0.1,0.5,0.3,0.8,0.4l0,0c-0.5,0.2-1,0.5-1.4,0.7c-1.2,0.6-2.5,1.2-3.7,1.8c-2.3,1.2-4.6,2.6-6.8,4.1c-2.2,1.5-4.3,3-6.4,4.7
				c-1.1,0.9-2.1,1.8-3.1,2.7c-0.4,0.4-0.7,0.8-1.1,1.2C186.1,177.1,185.6,176.7,184.9,176.4z M183.3,178.8c0.7,0,1.3,0.6,1.3,1.3
				c0,0.7-0.6,1.3-1.3,1.3c-0.7,0-1.3-0.6-1.3-1.3C182,179.4,182.6,178.8,183.3,178.8z M203.9,161.8c-1.1,0.6-2.3,1.2-3.4,1.8
				c-1.1,0.6-2.2,1.2-3.4,1.9c-1.1,0.7-2.4,1.2-3.5,1.9c-2.2,1.4-4.3,2.9-6.3,4.6c-1,0.8-2,1.6-2.9,2.5c-0.5,0.5-1,1-1.5,1.6
				c-2.2,0.3-3.8,2.3-3.6,4.5c0.3,2.2,2.3,3.8,4.5,3.6c2-0.2,3.6-2,3.6-4c0-0.4-0.1-0.8-0.2-1.2c0.6-0.4,1.1-0.8,1.7-1.2
				c1-0.8,1.9-1.7,2.9-2.5c2-1.6,4.2-3.2,6.4-4.6s4.4-2.8,6.7-4c1.1-0.6,2.3-1.2,3.4-1.7c0.6-0.3,1.2-0.6,1.9-0.9
				c0.3-0.1,0.5-0.2,0.8-0.4c1.3,0.8,2.6,1.7,3.9,2.5c0,0.2,0.1,0.3,0.2,0.5c-2.3,0.2-4.5,0.7-6.6,1.5c-3.4,1.2-6.6,2.9-9.5,5
				c-5.5,3.8-10.2,8.6-13.9,14.1c-3.7,5.5-6.6,11.5-8.5,17.9c-2.1,7.4-3.3,14.9-3.6,22.6c-0.2,4.3-0.4,8.6-0.2,12.8
				c0.1,2,0.1,4,0.2,5.9c0,1.9,0.1,3.8,0.3,5.7c-3.3-0.7-6.6-1.5-9.9-2.2l-1.9-0.4c0-0.1,0.1-0.2,0.1-0.3c0.1-15.4-0.2-30.9,3.5-46
				c3.2-13.1,9.6-25.2,20-34c2.7-2.2,5.5-4.2,8.6-5.9c1.6-0.9,3.2-1.7,4.9-2.4c1.5-0.7,3.1-1.1,4.5-1.9l0.3,0.2
				c0.9,0.5,1.7,1,2.6,1.5C205.2,161.1,204.5,161.5,203.9,161.8L203.9,161.8z M123.8,243.2c1.2,0.3,2.4,0.6,3.7,0.9
				c2.2,0.5,4.4,1,6.7,1.5l13.7,3l27,6c2.2,0.5,4.5,1,6.7,1.4l-0.9,0.1c-3.1,0.3-6.2,0.6-9.3,0.9c-0.6-1.4-1.8-2.5-3.1-3.1
				c-0.7-0.3-1.5-0.4-2.2-0.5c-1-0.2-2-0.3-3-0.4c-0.9,0-1.8-0.1-2.6-0.3c-0.9-0.2-1.7-0.3-2.6-0.2c-1.7,0.4-1.7,2.3-1.3,3.7
				c0.2,0.7,0.6,1.4,1.2,1.9c0.5,0.4,1,0.8,1.5,1.2c-8.8,0.9-17.6,1.8-26.4,2.6c-3.3-6.3-6.6-12.6-9.8-18.8
				C123.2,243.1,123.5,243.2,123.8,243.2z M189.2,257.3c0,0.2-0.1,0.3-0.1,0.5c-0.1,0.6-0.1,1.3-0.1,1.9c0,0.6,0,1.2,0,1.8
				c0,0.4,0,0.7,0,1.1c0,0,0,0-0.1,0c-0.3,0-0.6,0-1,0c-0.7,0.1-1.4,0.2-2.1,0.2l-4,0.5l-8.2,1c-0.1,0-0.1,0-0.2,0
				c-0.1-0.9-0.2-1.7-0.3-2.6c-0.2-0.9-0.4-1.9-0.8-2.8c2.8-0.3,5.7-0.6,8.5-0.9l4.7-0.5c0.8-0.1,1.5-0.1,2.3-0.2
				c0.4,0,0.8-0.1,1.1-0.2c0,0,0,0,0,0L189.2,257.3z M165.2,279.8C165.3,279.9,165.3,279.8,165.2,279.8z M168.5,281.7
				c-0.2-0.1-0.4-0.1-0.6-0.2c-0.1,0-0.4-0.2-0.5-0.2c-0.3-0.1-0.6-0.3-0.9-0.5c-0.1-0.1-0.3-0.2-0.4-0.3c0,0-0.3-0.2-0.3-0.3
				c-0.1-0.1-0.3-0.3-0.4-0.4c0,0-0.1-0.1-0.1-0.1c1.1-0.2,2.2-0.3,3.3-0.5c1.4-0.2,2.8-0.5,4.2-1c0,0.7-0.1,1.4-0.5,2
				c-0.5,0.9-1.5,1.5-2.5,1.6C169.3,281.9,168.9,281.8,168.5,281.7z M160.3,261.4c0,0.5,0,1.1-0.1,1.6c-0.1,1-0.3,2.1-0.6,3.2
				c0,0-0.1,0-0.1,0c-7.7,1-15.3,2-23,3c-0.9-1.7-1.8-3.4-2.6-5.1C142.7,263.2,151.5,262.3,160.3,261.4z M155.2,268.9
				c1.4,0.4,2.5,1.5,4.1,1.3c1.6-0.2,2.3-1.5,2.6-2.9c0.9-2.4,1-5,0.4-7.5c-0.6-1.3-1.5-2.3-2.7-3c-0.6-0.4-1-0.9-1.2-1.6
				c0-0.2-0.1-0.7-0.1-0.7c0,0,0.9,0.1,1.1,0.2c1.8,0.2,3.6,0.7,5.4,1c1.5,0,2.9,0.6,3.8,1.7c0.9,1.4,1.6,3,2.1,4.6
				c0.3,0.9,0.5,1.9,0.7,2.8c0.1,0.5,0.3,1,0.6,1.5c-0.1,0.4-0.1,0.8-0.1,1.2c0,0.6,0.1,1.3,0.2,1.9c0.2,1.3,0.3,2.6,0.4,3.9
				c0.1,1,0.1,2.1,0.2,3.1c-1.4,0-2.8,0.1-4.2,0.3c-1.7,0.2-3.3,0.4-5,0.6s-3.3,0.4-5,0.5c-1.6,0.2-3.1,0.3-4.7,0.3
				c-2.5-0.5-4.8-1.6-6.8-3.2c-1.4-0.9-2.7-1.8-4.1-2.7c-0.7-0.5-1.4-1-2.2-1.5L155.2,268.9z M174.8,275c-0.1-1.6-0.3-3.2-0.5-4.8
				c-0.1-0.8-0.2-1.5-0.4-2.2c-0.1-0.5-0.3-0.9-0.5-1.3c0.1,0,0.1,0,0.2,0l8.3-1.1l4.2-0.6c0.6-0.1,1.3-0.2,1.9-0.3
				c0.3,0,0.6-0.1,0.9-0.2c0.4-0.2,0.8-0.4,1.2-0.6h0c0.2-0.1,0.4-0.2,0.5-0.3c0.3-0.6,0.4-1.4,0.4-2.1c0-0.6,0-1.2,0-1.8
				c0-0.6,0-1.2-0.1-1.8c0-0.3-0.1-0.7-0.2-1c-0.1-0.2-0.2-0.4-0.3-0.6c0-0.3-0.2-0.6-0.5-0.6c-0.5-0.1-0.9-0.3-1.3-0.3
				c-0.3,0-0.7,0-1,0c-0.2,0-0.3,0-0.5,0c-2.4-0.7-4.9-1.3-7.3-1.8l2.9-0.9c2.3-0.7,4.7-1.2,7-1.9c1.9-0.9,4.1-1,6.2-0.5
				c1,0.4,2,0.8,3,1.3c0.5,0.2,1,0.4,1.4,0.6c0.6,0.2,1.2,0.3,1.9,0.4c0.2,0.1,0.4-0.1,0.5-0.3c0-0.1,0-0.3-0.1-0.4
				c-0.5-0.4-0.8-0.9-1.3-1.3c-0.5-0.4-1-0.7-1.5-1c-0.9-0.7-1.9-1.2-3-1.7c-0.5-0.2-1-0.4-1.6-0.5c0.1-1.2,0.1-2.4-0.1-3.6
				c-0.1-1.6-0.2-3.2-0.3-4.7c-0.2-3.1-0.4-6.2-0.6-9.3c-0.5-6.3-1.1-12.7-1.8-19c-0.2-1.7-0.4-3.4-0.7-5.1
				c-0.3-1.8-0.8-3.5-1.2-5.2c0-0.1-0.2-0.2-0.3-0.1c-0.1,0-0.2,0.1-0.2,0.2c-0.1,3.1-0.1,6.2,0.1,9.3c0.2,2.7,0.4,5.4,0.6,8.1
				c-0.1-0.3-0.2-0.6-0.3-0.9c-0.4-1.3-0.9-2.6-1.3-4c-0.2-0.7-0.4-1.4-0.7-2.1c-0.3-0.7-0.6-1.4-0.9-2.1c-0.1-0.2-0.3-0.3-0.5-0.2
				c-0.1,0.1-0.2,0.2-0.3,0.3c0,0.7-0.2,1.5-0.2,2.2c0,0.7,0.1,1.5,0.3,2.2c0.3,1.4,0.7,2.7,1.1,4c0.9,2.7,1.6,5.5,2.2,8.3
				c0.5,2.8,1,5.7,1.3,8.6c0.2,1.4,0.3,2.8,0.4,4.2c0.1,1,0.2,2,0.3,2.9c0,0.6,0.1,1.2,0.1,1.9c0,0.9,0.1,1.8,0.1,2.7
				c0,0.5,0,1,0.1,1.4c-0.9,0.1-1.8,0.3-2.7,0.5c-2.5,0.7-4.8,1.7-7.3,2.5l-3.5,1.1c-1.2,0.3-2.4,0.7-3.5,1.2l-0.4-0.1
				c0.1-0.1,0.2-0.3,0.2-0.5c0.3-3.3-0.1-6.7-0.1-10.1c0.1-3.6,0-7.3,0.2-10.9c0.2-7.4,1.1-14.8,2.8-22c2.8-12.6,9.8-23.8,19.7-32
				c2.8-2.2,6-4.1,9.3-5.6c1.9-0.9,4-1.5,6.1-2c1.7-0.3,3.5-0.5,5.2-0.7c0.1,0,0.1,0.1,0.2,0.1c5.2,4.7,8.6,11,9.8,17.8
				c0.6,3.5,1.1,6.9,1.2,10.5c0.2,3.7,0.3,7.5,0.5,11.3c0.3,8.8,0.6,17.5,1,26.3c0.2,4.4,0.3,8.9,0.5,13.3l0,0.3
				c-2.1-0.3-4.3,0-6.1,1c-2.2,1-4.2,2.5-5.8,4.4c-3.3,3.7-5.8,8-7.3,12.7c-0.8,2.3-1.3,4.6-1.6,7c-1.2,0.3-2.4,0.6-3.5,1
				c-5.2,1.5-10.3,3.1-15.5,4.5c-5.1,1.5-10.4,2.6-15.7,3.1c-0.8,0.1-1.6,0.1-2.3,0.1C175.3,280.3,175,277.4,174.8,275L174.8,275z
				 M231.8,254.7c0.1,1.4,0,2.9-0.3,4.3c-1.1,5.2-4.8,8.6-9.4,10.8c-2.8,1.3-5.7,2.3-8.7,3c0.6-3.9,1.9-7.6,3.8-11
				c1.9-4.1,5.1-7.6,9-9.9c1.1-0.5,2.3-0.9,3.5-1.1c0.5-0.1,1.3-0.1,2-0.2C231.7,251.9,231.8,253.3,231.8,254.7L231.8,254.7z
				 M230.5,186.1c-1-5.2-3.2-10.1-6.4-14.4c-0.3-0.3-0.6-0.7-0.9-1v-13.1h7.3L230.5,186.1z M187.5,283.2c5.6-1.4,11.1-3.1,16.6-4.8
				c2.3-0.7,4.7-1.4,7-2c1.3-0.3,2.6-0.7,3.9-1c0.3,6.3,0.4,12.6,0.7,18.8c0,0,0,0.1,0,0.1h-34.9c0.1-3.3,0.3-6.5,0.4-9.8
				C183.3,284.2,185.4,283.7,187.5,283.2L187.5,283.2z M214.6,153.5c0,2.2,0,4.4,0,6.6c0,1.1,0,2.3,0,3.4c0,0,0,0.1,0,0.1
				c-3.3-2.1-6.7-4.1-10.2-6c-1-0.5-1.9-1-2.9-1.5c-0.6-0.3-1.3-0.6-2-0.7c0.2-0.2,0.4-0.4,0.6-0.6c0.5-0.1,0.9-0.6,0.9-1.1
				c0-1.2-0.1-2.4-0.1-3.7c0-1.2,0-2.4-0.2-3.6c-0.1-1.1-0.9-2.1-2-2.4c-0.2,0-0.3-0.1-0.5-0.1c-0.1-1.1-0.1-2.3-0.2-3.4
				c1.3,0.1,2.5,0.2,3.8,0.2l5.1,0c2.6,0,5.2,0,7.8,0c-0.2,0.9-0.3,1.8-0.3,2.8c0,1.1,0,2.3,0,3.4
				C214.6,149.1,214.6,151.3,214.6,153.5L214.6,153.5z M113.5,142.3c0-0.3,0-0.7,0-1c3.2,3.5,10.3,4.5,14,4.9
				c11.3,1.4,22.7,0.7,33.8-1.9c3.2-0.8,13.7-3.7,14.1-8c0.2-3-2.6-4.8-4.3-7.1c-2-2.8-1.5-6-0.6-8.8c0.8-2.6,1.8-6-1.4-7.9
				c-1.2-0.6-2.5-1-3.9-0.9c-1.6-0.1-3.2-0.1-4.8-0.1c-3.4-0.1-6.8-0.3-10.2-0.6c-6.7-0.6-13.4-1.5-20.1-2.7
				c-0.8-0.1-8.1-1.4-11.6-1.8c1.6-3.9,4-7.4,6.9-10.5c3.4-3.5,7.5-6.2,12-8c9.4-3.8,19.7-4.3,29.4-1.3
				c10.8,3.1,19.7,10.8,24.3,21.1c4.4,10.5,4,22.1,4.5,33.2c0.1,1.3,0.1,2.6,0.2,3.9c0,0.1,0,0.2,0.1,0.2c-0.7,0.4-1.4,0.8-2.1,1.2
				c-1.2,0.7-2.5,1.4-3.8,2c-2.6,1.3-5.3,2.5-8,3.6c-5.4,2.1-11.1,3.7-16.8,4.8c-5.9,1.1-11.8,1.8-17.7,2.1
				c-5.7,0.4-11.5,0.3-17.2-0.1c-5.9-0.3-11.6-2.5-16.2-6.3c-0.1-0.1-0.3-0.2-0.5-0.3C113.7,148.7,113.7,145.5,113.5,142.3
				L113.5,142.3z M109,162.4c0,0.1,0.1,0.2,0.2,0.2c0.2,0.2,0.5,0.4,0.8,0.7c-6,12.9-8,27.5-8.9,41.5c-0.3,4-0.4,8-0.5,12
				c-1.2-0.3-2.3-0.6-3.5-1c-4.2-1.2-8.5-2.3-12.7-3.5c4.7-14.1,11-27.6,18.8-40.3c1.1-1.8,2.2-3.5,3.3-5.2
				C107.4,165.4,108.3,163.9,109,162.4L109,162.4z M294.1,294.3h-54c0.3-4.2,0.1-8.4,0.1-12.6c0-4.9,0-9.8,0-14.6
				c0-10.5,0-21-0.1-31.5c0-10.8-0.1-21.6-0.1-32.4c0-10.5-0.1-21.1-0.1-31.6c0-9.6,0.2-19.3-0.3-28.9c0-1.1-0.1-2.2-0.2-3.2
				c0-0.4-0.3-0.7-0.6-0.8c-0.2-0.1-0.3-0.2-0.5-0.2c-3.5-0.3-7-0.2-10.5-0.2h-10.4c-3.5,0-6.9,0-10.4,0l-5.1,0
				c-1.3,0-2.6,0-3.9,0.2c-0.3-9.5-0.3-19.2-3.3-28.3c-1.9-5.9-5.1-11.3-9.5-15.8c-4.1-4-9-7.2-14.3-9.3c-10-3.9-21-4.3-31.2-1
				c-10.1,3.1-18.5,10.2-23.1,19.6c-3.2,7.1-5.1,14.7-5.7,22.5c-0.5,7.3-0.4,14.6,0.2,21.9c0.1,1.3,0.2,2.5,0.3,3.7
				c-0.5-0.2-1.1-0.2-1.6,0.1c-1,0.6-1.6,1.6-1.6,2.8c0,0.6,0,1.1,0.1,1.7c0,0.6,0,1.2,0.1,1.8l0.1,1.9c0,0.4,0,0.8,0,1.2
				c-1.3,1.2-2.4,2.6-3.3,4c-1.1,1.6-2.1,3.2-3.1,4.8c-2,3.2-3.9,6.5-5.8,9.8c-3.6,6.6-6.8,13.3-9.6,20.3c-1.6,3.9-3.1,7.8-4.5,11.7
				l-26.4-7.2c-2.5-0.7-5.1-1.4-7.6-2.1c-1.3-0.4-2.6-0.7-4-1c-1.3-0.4-2.6-0.7-3.9-0.8c-0.4,0-0.7,0.4-0.7,0.8
				c0,0.3,0.1,0.5,0.4,0.6c0,0,0,0,0,0c0.2,1.2,0.6,2.3,1.2,3.3c0.7,1.5,1.4,3,2.2,4.4l4.4,8.8c2.9,5.9,5.8,11.8,8.8,17.7l5,10.1
				c0.1,0.3,0.4,0.5,0.7,0.5l13.5,4.6c-0.2,1.9-1.3,4.4,1,5.5c1.3,0.5,2.6,0.9,3.9,1.2l4.4,1.2c2.8,0.8,5.7,1.7,8.5,2.5
				c1.1,0.3,2.2,0.6,3-0.4c0.3-0.5,0.5-1,0.7-1.5c0.1-0.4,0.2-0.8,0.3-1.1l7.2,2.5c0.3,9.1,0.4,18.3,0.6,27.4c0,1.8,0.1,3.7,0.1,5.5
				H5.9L5.8,155.3c0,0-0.1-3.2-0.1-5.9c0-2.5,0.1-5.1,0.2-7.8l0-0.4C10.4,61.5,78.6,0.8,158.1,5.3c73.2,4.2,131.6,62.6,135.7,135.7
				l0.2,5.5L294.1,294.3z"/>
		</g>
	</g>
</g>
<g>
</g>
<g>
</g>
<g>
</g>
<g>
</g>
<g>
</g>
<g>
</g>
<g>
</g>
<g>
</g>
<g>
</g>
<g>
</g>
<g>
</g>
<g>
</g>
<g>
</g>
<g>
</g>
<g>
</g>
</svg>
