<?xml version="1.0" encoding="utf-8"?>
<!-- Generator: Adobe Illustrator 25.2.3, SVG Export Plug-In . SVG Version: 6.00 Build 0)  -->
<svg version="1.1" id="Layer_1" xmlns="http://www.w3.org/2000/svg" xmlns:xlink="http://www.w3.org/1999/xlink" x="0px" y="0px"
     viewBox="0 0 46.39 46.39" style="enable-background:new 0 0 46.39 46.39;" xml:space="preserve">
<style type="text/css">
    .st0{fill:#FFFFFF;}
</style>
    <g>
    <path class="st0" d="M45.28,22.9c-0.49,28.44-42.79,28.43-43.27,0C2.5-5.54,44.8-5.54,45.28,22.9z"/>
        <path d="M23.65,45.45c-29.64-0.48-29.63-44.63,0-45.1C53.28,0.82,53.28,44.98,23.65,45.45z M23.65,2.18
        c-27.09,0.09-27.09,41.36,0,41.44C50.74,43.53,50.74,2.26,23.65,2.18z"/>
        <path d="M41.94,21.07C38.86,8.69,3.47,8.77,5.01,24.45C5.74,49.51,46.24,46.16,41.94,21.07z"/>
        <path class="st0" d="M14.69,22.35c0.06,4.27-6.65,4.27-6.58,0C8.05,18.08,14.76,18.08,14.69,22.35z"/>
        <path class="st0" d="M11.07,28.39c0.02,1.7-2.65,1.7-2.62,0C8.42,26.68,11.09,26.68,11.07,28.39z"/>
        <path class="st0" d="M30.56,16.2c0.28-1.27,6.76,0.79,8.45,5.64c1.69,4.84-2.11,12.22-3.52,11.43
        C36.02,25.33,37.44,22.84,30.56,16.2z"/>
</g>
</svg>