<?xml version="1.0" encoding="utf-8"?>
<!-- Generator: Adobe Illustrator 25.2.3, SVG Export Plug-In . SVG Version: 6.00 Build 0)  -->
<svg version="1.1" id="Layer_1" xmlns="http://www.w3.org/2000/svg" xmlns:xlink="http://www.w3.org/1999/xlink" x="0px" y="0px"
     viewBox="0 0 34.41 34.41" style="enable-background:new 0 0 34.41 34.41;" xml:space="preserve">
<style type="text/css">
    .st0{fill:#FFFFFF;stroke:url(#SVGID_1_);stroke-miterlimit:10;}
    .st1{fill:url(#SVGID_2_);}
    .st2{fill:#FFFFFF;}
</style>
    <g>
    <linearGradient id="SVGID_1_" gradientUnits="userSpaceOnUse" x1="0.9311" y1="17.2025" x2="33.4739" y2="17.2025">
        <stop  offset="0" style="stop-color:#9E99FF"/>
        <stop  offset="1" style="stop-color:#5C45FF"/>
    </linearGradient>
        <path class="st0" d="M17.2,33.2c-21.03-0.34-21.03-31.67,0-32C38.23,1.54,38.23,32.87,17.2,33.2z"/>
        <linearGradient id="SVGID_2_" gradientUnits="userSpaceOnUse" x1="3.9435" y1="20.058" x2="30.407" y2="20.058">
        <stop  offset="0" style="stop-color:#9E99FF"/>
            <stop  offset="1" style="stop-color:#5C45FF"/>
    </linearGradient>
        <path class="st1" d="M30.18,15.91C27.99,7.12,2.89,7.18,3.98,18.3C4.5,36.09,33.23,33.71,30.18,15.91z"/>
        <path class="st2" d="M6.42,21.1c-0.02-1.21,1.88-1.21,1.86,0C8.29,22.3,6.4,22.3,6.42,21.1z"/>
        <path class="st2" d="M6.18,16.81c-0.04-3.03,4.72-3.03,4.67,0C10.89,19.84,6.13,19.84,6.18,16.81z"/>
        <path class="st2" d="M25.61,24.56c0.38-5.63,1.38-7.4-3.5-12.11c0.2-0.9,4.8,0.56,6,4C29.3,19.88,26.61,25.12,25.61,24.56z"/>
</g>
</svg>