<?xml version="1.0" encoding="utf-8"?>
<!-- Generator: Adobe Illustrator 25.4.1, SVG Export Plug-In . SVG Version: 6.00 Build 0)  -->
<svg version="1.1" id="Layer_1" xmlns="http://www.w3.org/2000/svg" xmlns:xlink="http://www.w3.org/1999/xlink" x="0px" y="0px"
	 viewBox="0 0 132 132" style="enable-background:new 0 0 132 132;" xml:space="preserve">
<style type="text/css">
	.st0{fill:#E01E5A;}
	.st1{fill:#36C5F0;}
	.st2{fill:#2EB67D;}
	.st3{fill:#ECB22E;}
</style>
<g>
	<g>
		<path class="st0" d="M30.4,82.2c0,7.1-5.8,12.9-12.9,12.9S4.6,89.3,4.6,82.2c0-7.1,5.8-12.9,12.9-12.9h12.9V82.2z"/>
		<path class="st0" d="M36.9,82.2c0-7.1,5.8-12.9,12.9-12.9s12.9,5.8,12.9,12.9v32.3c0,7.1-5.8,12.9-12.9,12.9s-12.9-5.8-12.9-12.9
			C36.9,114.5,36.9,82.2,36.9,82.2z"/>
	</g>
	<g>
		<path class="st1" d="M49.8,30.4c-7.1,0-12.9-5.8-12.9-12.9S42.7,4.6,49.8,4.6s12.9,5.8,12.9,12.9v12.9H49.8z"/>
		<path class="st1" d="M49.8,36.9c7.1,0,12.9,5.8,12.9,12.9s-5.8,12.9-12.9,12.9H17.5c-7.1,0-12.9-5.8-12.9-12.9s5.8-12.9,12.9-12.9
			C17.5,36.9,49.8,36.9,49.8,36.9z"/>
	</g>
	<g>
		<path class="st2" d="M101.6,49.8c0-7.1,5.8-12.9,12.9-12.9c7.1,0,12.9,5.8,12.9,12.9s-5.8,12.9-12.9,12.9h-12.9V49.8z"/>
		<path class="st2" d="M95.1,49.8c0,7.1-5.8,12.9-12.9,12.9c-7.1,0-12.9-5.8-12.9-12.9V17.5c0-7.1,5.8-12.9,12.9-12.9
			c7.1,0,12.9,5.8,12.9,12.9V49.8z"/>
	</g>
	<g>
		<path class="st3" d="M82.2,101.6c7.1,0,12.9,5.8,12.9,12.9c0,7.1-5.8,12.9-12.9,12.9c-7.1,0-12.9-5.8-12.9-12.9v-12.9H82.2z"/>
		<path class="st3" d="M82.2,95.1c-7.1,0-12.9-5.8-12.9-12.9c0-7.1,5.8-12.9,12.9-12.9h32.3c7.1,0,12.9,5.8,12.9,12.9
			c0,7.1-5.8,12.9-12.9,12.9H82.2z"/>
	</g>
</g>
</svg>
